<svg width="78" height="20" viewBox="0 0 78 20" fill="none" xmlns="http://www.w3.org/2000/svg">
<g clip-path="url(#clip0_1_70)">
<path d="M11.5121 11.4157C10.9847 11.881 10.3305 12.4638 9.14397 12.4638H8.4311C7.57175 12.4638 6.78563 12.1504 6.22901 11.5822C5.68215 11.0287 5.37942 10.2646 5.37942 9.44179V8.46709C5.37942 7.63933 5.68215 6.88014 6.22901 6.32667C6.79052 5.75851 7.57175 5.44503 8.4311 5.44503H9.14397C10.3353 5.44503 10.9896 6.0279 11.5121 6.4932C12.0589 6.9781 12.5277 7.39443 13.7825 7.39443C13.9778 7.39443 14.1683 7.37974 14.3539 7.35035C14.3539 7.34545 14.349 7.34545 14.349 7.34055C14.2757 7.15443 14.1878 6.97321 14.0853 6.79688L13.2454 5.34216C12.474 4.00501 11.0532 3.18216 9.51511 3.18216H7.84029C6.30225 3.18216 4.8814 4.00501 4.10993 5.34216L3.27013 6.79688C2.49866 8.13403 2.49866 9.77975 3.27013 11.1169L4.10993 12.5716C4.8814 13.9087 6.30225 14.7316 7.84029 14.7316H9.51511C11.0532 14.7316 12.474 13.9087 13.2454 12.5716L14.0853 11.1169C14.1878 10.9406 14.2757 10.7593 14.349 10.5732C14.349 10.5683 14.3539 10.5683 14.3539 10.5634C14.1683 10.534 13.9778 10.5193 13.7825 10.5193C12.5277 10.5095 12.0541 10.9308 11.5121 11.4157Z" fill="#231F20"/>
<path d="M9.13951 6.32208H8.42664C7.11808 6.32208 6.25873 7.26249 6.25873 8.4625V9.4372C6.25873 10.6372 7.11808 11.5776 8.42664 11.5776H9.13951C11.0486 11.5776 10.8973 9.62822 13.7781 9.62822C14.0564 9.62822 14.325 9.65271 14.5935 9.70169C14.6814 9.20699 14.6814 8.6976 14.5935 8.20291C14.3299 8.25189 14.0564 8.27638 13.7781 8.27638C10.8973 8.27638 11.0486 6.32208 9.13951 6.32208Z" fill="#231F20"/>
<path d="M16.2475 10.4167C15.7544 10.0543 15.1929 9.81427 14.5923 9.70162C14.5923 9.70652 14.5923 9.71142 14.5923 9.71632C14.5435 10.0004 14.4605 10.2845 14.3531 10.5588C14.856 10.642 15.3247 10.8331 15.7202 11.122C15.7202 11.1269 15.7153 11.1318 15.7153 11.1367C15.4858 11.8861 15.1392 12.5865 14.69 13.2282C14.2408 13.86 13.7037 14.4184 13.0836 14.8837C11.7994 15.8486 10.2662 16.3629 8.65496 16.3629C7.65889 16.3629 6.69212 16.167 5.77906 15.78C4.90015 15.4078 4.10915 14.8739 3.43046 14.1931C2.75177 13.5122 2.21956 12.7188 1.84847 11.8371C1.46274 10.9261 1.26744 9.95142 1.26744 8.95223C1.26744 7.95304 1.46274 6.98324 1.84847 6.06732C2.21956 5.18567 2.75177 4.39221 3.43046 3.71139C4.10915 3.03057 4.90015 2.49668 5.77906 2.12443C6.68724 1.73749 7.65889 1.54158 8.65496 1.54158C10.2662 1.54158 11.7994 2.05097 13.0836 3.02077C13.7037 3.48608 14.2408 4.04445 14.69 4.67628C15.1441 5.31792 15.4858 6.02324 15.7153 6.76773C15.7153 6.77263 15.7202 6.77753 15.7202 6.78243C15.3247 7.0763 14.856 7.26733 14.3531 7.34569C14.4605 7.61998 14.5435 7.89917 14.5923 8.18815C14.5923 8.19304 14.5923 8.19794 14.5923 8.20284C15.1929 8.09019 15.7544 7.85508 16.2475 7.48773C16.7212 7.13508 16.6283 6.74324 16.5551 6.50814C15.5151 3.11872 12.3706 0.659943 8.65003 0.659943C4.08473 0.659943 0.383667 4.37262 0.383667 8.95223C0.383667 13.5318 4.08473 17.2445 8.65003 17.2445C12.3706 17.2445 15.5151 14.7808 16.5551 11.3963C16.6283 11.1612 16.7212 10.7645 16.2475 10.4167Z" fill="#231F20"/>
<path d="M45.9881 8.04587C47.1844 8.04587 48.3172 8.78057 48.5564 10.3675H43.2245C43.4491 8.97649 44.4891 8.04587 45.9881 8.04587ZM48.3903 12.7185C47.9851 13.3553 47.1941 13.8451 46.1199 13.8451C44.6356 13.8451 43.5028 13.0271 43.2294 11.5871H49.9187C49.9529 11.3814 49.9675 11.1708 49.9675 10.9602C49.9675 8.7169 48.405 6.73322 45.993 6.73322C43.5028 6.73322 41.8085 8.57486 41.8085 10.9455C41.8085 13.3455 43.5175 15.1577 46.0858 15.1577C47.6824 15.1577 48.8933 14.4377 49.5964 13.3504L48.3903 12.7185Z" fill="#231F20"/>
<path d="M41.1502 3.25595H39.7635V14.9474H41.1502V3.25595Z" fill="#231F20"/>
<path d="M57.6927 10.0295V14.9471H56.306V10.1128C56.306 8.8001 55.5541 8.06051 54.3285 8.06051C53.0493 8.06051 52.0141 8.8148 52.0141 10.7005V14.9422H50.6226V6.93397H52.0092V8.085C52.6 7.13969 53.4789 6.72336 54.5971 6.72336C56.4623 6.73315 57.6927 7.98214 57.6927 10.0295Z" fill="#231F20"/>
<path d="M65.3536 10.9458C65.3536 9.30986 64.1231 8.08047 62.5119 8.08047C60.9152 8.08047 59.6848 9.31476 59.6848 10.9458C59.6848 12.5768 60.9152 13.8111 62.5119 13.8111C64.1231 13.8111 65.3536 12.5768 65.3536 10.9458ZM66.7403 3.25595V14.9474H65.3536V13.5711C64.7139 14.5458 63.6935 15.158 62.3361 15.158C60.1193 15.158 58.2981 13.3164 58.2981 10.9458C58.2981 8.57517 60.1193 6.73353 62.3361 6.73353C63.6935 6.73353 64.7139 7.34088 65.3536 8.32047V3.26084H66.7403V3.25595Z" fill="#231F20"/>
<path d="M69.2451 3.25595H67.8585V14.9474H69.2451V3.25595Z" fill="#231F20"/>
<path d="M37.2882 10.9455C37.2882 9.30955 36.0578 8.08016 34.4465 8.08016C32.8498 8.08016 31.6194 9.31445 31.6194 10.9455C31.6194 12.5765 32.8498 13.8108 34.4465 13.8108C36.0578 13.8108 37.2882 12.5765 37.2882 10.9455ZM38.6748 6.93893V14.9471H37.2882V13.5708C36.6485 14.5455 35.6281 15.1577 34.2707 15.1577C32.054 15.1577 30.2327 13.3161 30.2327 10.9455C30.2327 8.57486 32.054 6.73322 34.2707 6.73322C35.6281 6.73322 36.6485 7.34056 37.2882 8.32016V6.94383H38.6748V6.93893Z" fill="#231F20"/>
<path d="M28.172 13.4091C27.4689 13.6687 26.7022 13.7421 25.9552 13.6148C24.8175 13.4238 23.8214 12.7968 23.1525 11.8515C22.4836 10.9062 22.22 9.76008 22.4104 8.61885C22.6008 7.47763 23.2258 6.47844 24.1682 5.80741C25.1105 5.13637 26.2531 4.87189 27.3907 5.06781C28.1378 5.19516 28.836 5.51352 29.4171 5.99354C29.6612 6.19435 29.8809 6.42456 30.0762 6.67436L31.2773 5.79272C31.0088 5.44006 30.7012 5.11678 30.3643 4.8425C29.5831 4.19596 28.6407 3.76494 27.6397 3.59351C26.1114 3.33392 24.5685 3.68657 23.3039 4.5878C22.0393 5.48903 21.1995 6.83109 20.9407 8.36906C20.4085 11.538 22.5422 14.5503 25.7013 15.0891C26.0187 15.143 26.3458 15.1723 26.673 15.1723C27.3663 15.1723 28.0401 15.0499 28.6847 14.8099C29.2315 14.6091 29.7491 14.3152 30.2178 13.9577L29.4171 12.6891C29.046 12.9927 28.6212 13.2425 28.172 13.4091Z" fill="#231F20"/>
<path d="M75.9543 6.9391V11.4844C75.9543 12.9538 75.0998 13.8844 73.8011 13.8844C72.5023 13.8844 71.5599 12.9538 71.5599 11.4844V6.9391H70.1537V11.3473C70.1537 13.6591 71.5892 15.1579 73.8011 15.1579C75.7151 15.1579 76.0129 13.9432 76.0129 13.9138V15.5497C76.0129 17.171 75.3098 18.082 73.845 18.082C72.7415 18.082 71.8333 17.264 71.6966 16.211L70.4418 16.6518C70.8031 18.1996 72.18 19.3555 73.845 19.3555C76.1154 19.3555 77.3605 17.8567 77.3605 15.5449V6.9342H75.9543V6.9391Z" fill="#231F20"/>
</g>
<defs>
<clipPath id="clip0_1_70">
<rect width="77.2411" height="18.7103" fill="white" transform="translate(0.379456 0.644867)"/>
</clipPath>
</defs>
</svg>
