<svg width="230" height="24" viewBox="0 0 230 24" fill="none" xmlns="http://www.w3.org/2000/svg">
<rect y="0.35743" width="30.5289" height="22.9532" rx="1.5134" fill="#F54A00"/>
<path d="M3.61879 7.16546V3.9759H26.9112V9.77102L21.0487 8.9624V7.16546H12.8281V16.5095H21.0487V14.7126L26.9112 13.904V19.6991H6.96558V7.16546H3.61879Z" fill="white"/>
<path d="M43.4697 20.394C42.2523 20.394 41.1503 20.1526 40.1637 19.6698C39.1772 19.166 38.3901 18.4314 37.8023 17.4658C37.2146 16.4792 36.9207 15.2828 36.9207 13.8764C36.9627 12.4701 37.2671 11.2631 37.8338 10.2556C38.4215 9.24805 39.2087 8.47141 40.1952 7.92566C41.1818 7.37991 42.2943 7.10703 43.5327 7.10703C44.8341 7.10703 45.9361 7.35892 46.8387 7.86269C47.7413 8.34547 48.4445 8.97518 48.9482 9.75182C49.452 10.5285 49.7354 11.3471 49.7983 12.2077H46.8387C46.6918 11.452 46.3454 10.8748 45.7997 10.476C45.2539 10.0772 44.5297 9.87776 43.6272 9.87776C42.8715 9.87776 42.2313 10.0352 41.7065 10.35C41.1818 10.6649 40.7725 11.1057 40.4786 11.6724C40.2057 12.2182 40.0693 12.8689 40.0693 13.6246C40.0693 14.842 40.3631 15.818 40.9509 16.5527C41.5596 17.2664 42.4517 17.6232 43.6272 17.6232C44.4248 17.6232 45.1175 17.4133 45.7052 16.9935C46.3139 16.5737 46.6918 15.9545 46.8387 15.1359H49.7983C49.7354 16.0384 49.4415 16.8886 48.9167 17.6862C48.413 18.4838 47.6993 19.1345 46.7757 19.6383C45.8731 20.1421 44.7711 20.394 43.4697 20.394Z" fill="#1D1D1E"/>
<path d="M58.386 20.394C56.9587 20.394 55.7517 20.1106 54.7652 19.5438C53.7996 18.9771 53.0755 18.2005 52.5927 17.2139C52.1099 16.2064 51.8685 15.0624 51.8685 13.782C51.8685 12.4806 52.1099 11.3366 52.5927 10.35C53.0755 9.34251 53.7996 8.55537 54.7652 7.98863C55.7517 7.42189 56.9692 7.13852 58.4175 7.13852C60.5375 7.13852 62.1433 7.74724 63.2348 8.96468C64.3473 10.1821 64.9035 11.7879 64.9035 13.782C64.9035 15.0204 64.6727 16.1434 64.2109 17.1509C63.7491 18.1585 63.0354 18.9561 62.0698 19.5438C61.1043 20.1106 59.8763 20.394 58.386 20.394ZM58.386 17.6862C59.3306 17.6862 60.0443 17.4868 60.5271 17.088C61.0308 16.6891 61.3667 16.1854 61.5346 15.5767C61.7025 14.9469 61.7865 14.3172 61.7865 13.6875C61.7865 13.0158 61.7025 12.3756 61.5346 11.7669C61.3667 11.1582 61.0308 10.6544 60.5271 10.2556C60.0443 9.83578 59.3306 9.62588 58.386 9.62588C57.4625 9.62588 56.7488 9.83578 56.245 10.2556C55.7622 10.6544 55.4264 11.1582 55.2375 11.7669C55.0695 12.3756 54.9856 13.0158 54.9856 13.6875C54.9856 14.3172 55.0695 14.9469 55.2375 15.5767C55.4264 16.1854 55.7622 16.6891 56.245 17.088C56.7488 17.4868 57.4625 17.6862 58.386 17.6862Z" fill="#1D1D1E"/>
<path d="M72.9853 20.394C71.7048 20.394 70.6658 20.1211 69.8682 19.5753C69.0915 19.0296 68.5248 18.2634 68.168 17.2769C67.8111 16.2903 67.6327 15.1464 67.6327 13.845C67.6327 12.4806 67.8111 11.3051 68.168 10.3186C68.5458 9.31102 69.123 8.53438 69.8997 7.98863C70.6973 7.42189 71.7258 7.13852 72.9853 7.13852C73.8039 7.13852 74.4861 7.27496 75.0318 7.54783C75.5986 7.79972 76.0394 8.10408 76.3542 8.46091C76.6901 8.81775 76.9315 9.1431 77.0784 9.43697C77.2253 9.73083 77.3093 9.90925 77.3303 9.97222H77.3932V2.35271H80.6992V20.0791H77.9285L77.3932 17.7806H77.3303C77.3093 17.8226 77.2148 17.9801 77.0469 18.2529C76.9 18.5258 76.6481 18.8302 76.2912 19.166C75.9554 19.5019 75.5146 19.7957 74.9689 20.0476C74.4231 20.2785 73.7619 20.394 72.9853 20.394ZM74.0243 17.6862C74.8219 17.6862 75.4621 17.5183 75.9449 17.1824C76.4487 16.8466 76.8055 16.3953 77.0154 15.8285C77.2463 15.2408 77.3618 14.5691 77.3618 13.8135C77.3618 13.0788 77.2568 12.4281 77.0469 11.8614C76.837 11.2736 76.4907 10.8223 76.0079 10.5075C75.5461 10.1716 74.9164 10.0037 74.1187 10.0037C73.2581 10.0037 72.5759 10.1821 72.0722 10.539C71.5894 10.8958 71.2536 11.3681 71.0646 11.9558C70.8757 12.5435 70.7813 13.1628 70.7813 13.8135C70.7813 14.4642 70.8652 15.0939 71.0332 15.7026C71.2221 16.2903 71.5474 16.7731 72.0092 17.1509C72.492 17.5078 73.1637 17.6862 74.0243 17.6862Z" fill="#1D1D1E"/>
<path d="M89.7319 20.394C88.2416 20.394 87.0241 20.0791 86.0796 19.4494C85.156 18.7987 84.4633 17.9696 84.0015 16.962C83.5607 15.9545 83.3298 14.905 83.3088 13.8135C83.2879 12.5121 83.5292 11.3576 84.033 10.35C84.5578 9.32152 85.2924 8.52388 86.237 7.95714C87.2026 7.36941 88.336 7.07555 89.6375 7.07555C90.7919 7.07555 91.831 7.32743 92.7545 7.8312C93.6781 8.33497 94.4023 9.03815 94.927 9.94074C95.4728 10.8433 95.7562 11.9243 95.7771 13.1838C95.7771 13.2257 95.7771 13.3517 95.7771 13.5616C95.7771 13.7505 95.7771 13.8974 95.7771 14.0024H86.3629C86.3629 15.1988 86.6568 16.1224 87.2445 16.7731C87.8533 17.4028 88.6614 17.7177 89.6689 17.7177C90.4666 17.7177 91.1278 17.5183 91.6525 17.1195C92.1983 16.7206 92.5236 16.1959 92.6286 15.5452H95.7457C95.6617 16.4478 95.3678 17.2664 94.8641 18.001C94.3603 18.7357 93.6781 19.3234 92.8175 19.7642C91.9569 20.1841 90.9284 20.394 89.7319 20.394ZM86.4574 12.554H92.5656C92.5446 12.4071 92.5026 12.1762 92.4397 11.8614C92.3767 11.5465 92.2403 11.2211 92.0304 10.8853C91.8205 10.5495 91.5161 10.2661 91.1173 10.0352C90.7185 9.8043 90.2042 9.68885 89.5745 9.68885C88.9448 9.68885 88.4305 9.7938 88.0317 10.0037C87.6329 10.2136 87.3285 10.476 87.1186 10.7908C86.9087 11.1057 86.7513 11.4206 86.6463 11.7354C86.5414 12.0503 86.4784 12.3231 86.4574 12.554Z" fill="#1D1D1E"/>
<path d="M98.8915 20.0791V2.35271H102.04V20.0791H98.8915Z" fill="#1D1D1E"/>
<path d="M111.117 20.394C109.69 20.394 108.483 20.1106 107.496 19.5438C106.531 18.9771 105.806 18.2005 105.324 17.2139C104.841 16.2064 104.6 15.0624 104.6 13.782C104.6 12.4806 104.841 11.3366 105.324 10.35C105.806 9.34251 106.531 8.55537 107.496 7.98863C108.483 7.42189 109.7 7.13852 111.149 7.13852C113.269 7.13852 114.874 7.74724 115.966 8.96468C117.078 10.1821 117.635 11.7879 117.635 13.782C117.635 15.0204 117.404 16.1434 116.942 17.1509C116.48 18.1585 115.766 18.9561 114.801 19.5438C113.835 20.1106 112.607 20.394 111.117 20.394ZM111.117 17.6862C112.062 17.6862 112.775 17.4868 113.258 17.088C113.762 16.6891 114.098 16.1854 114.266 15.5767C114.434 14.9469 114.517 14.3172 114.517 13.6875C114.517 13.0158 114.434 12.3756 114.266 11.7669C114.098 11.1582 113.762 10.6544 113.258 10.2556C112.775 9.83578 112.062 9.62588 111.117 9.62588C110.193 9.62588 109.48 9.83578 108.976 10.2556C108.493 10.6544 108.157 11.1582 107.968 11.7669C107.801 12.3756 107.717 13.0158 107.717 13.6875C107.717 14.3172 107.801 14.9469 107.968 15.5767C108.157 16.1854 108.493 16.6891 108.976 17.088C109.48 17.4868 110.193 17.6862 111.117 17.6862Z" fill="#1D1D1E"/>
<path d="M126.283 20.394C124.856 20.394 123.649 20.1106 122.662 19.5438C121.697 18.9771 120.972 18.2005 120.49 17.2139C120.007 16.2064 119.765 15.0624 119.765 13.782C119.765 12.4806 120.007 11.3366 120.49 10.35C120.972 9.34251 121.697 8.55537 122.662 7.98863C123.649 7.42189 124.866 7.13852 126.314 7.13852C128.435 7.13852 130.04 7.74724 131.132 8.96468C132.244 10.1821 132.801 11.7879 132.801 13.782C132.801 15.0204 132.57 16.1434 132.108 17.1509C131.646 18.1585 130.932 18.9561 129.967 19.5438C129.001 20.1106 127.773 20.394 126.283 20.394ZM126.283 17.6862C127.228 17.6862 127.941 17.4868 128.424 17.088C128.928 16.6891 129.264 16.1854 129.432 15.5767C129.599 14.9469 129.683 14.3172 129.683 13.6875C129.683 13.0158 129.599 12.3756 129.432 11.7669C129.264 11.1582 128.928 10.6544 128.424 10.2556C127.941 9.83578 127.228 9.62588 126.283 9.62588C125.359 9.62588 124.646 9.83578 124.142 10.2556C123.659 10.6544 123.323 11.1582 123.134 11.7669C122.967 12.3756 122.883 13.0158 122.883 13.6875C122.883 14.3172 122.967 14.9469 123.134 15.5767C123.323 16.1854 123.659 16.6891 124.142 17.088C124.646 17.4868 125.359 17.6862 126.283 17.6862Z" fill="#1D1D1E"/>
<path d="M135.372 20.0791V7.13852H138.426L138.489 9.94074H138.552C138.573 9.85677 138.647 9.67836 138.773 9.40548C138.92 9.11162 139.14 8.79676 139.434 8.46091C139.749 8.10408 140.148 7.79972 140.63 7.54783C141.113 7.27496 141.711 7.13852 142.425 7.13852C143.118 7.13852 143.695 7.27496 144.157 7.54783C144.619 7.82071 144.986 8.16705 145.259 8.58685C145.553 9.00666 145.762 9.45796 145.888 9.94074H145.951C145.972 9.85677 146.067 9.66786 146.235 9.374C146.403 9.08013 146.644 8.76527 146.959 8.42943C147.274 8.07259 147.683 7.76823 148.187 7.51635C148.712 7.26446 149.341 7.13852 150.076 7.13852C150.895 7.13852 151.566 7.31694 152.091 7.67377C152.637 8.00962 153.067 8.45042 153.382 8.99617C153.697 9.52093 153.928 10.0877 154.075 10.6964C154.243 11.3051 154.348 11.8928 154.39 12.4596C154.432 13.0053 154.453 13.4566 154.453 13.8135V20.0791H151.335V13.782C151.335 13.4461 151.314 13.0683 151.272 12.6485C151.251 12.2077 151.168 11.7879 151.021 11.3891C150.895 10.9693 150.674 10.6334 150.359 10.3815C150.045 10.1087 149.604 9.97222 149.037 9.97222C148.344 9.97222 147.809 10.1716 147.431 10.5704C147.074 10.9483 146.823 11.4416 146.676 12.0503C146.55 12.638 146.487 13.2572 146.487 13.9079V20.0791H143.338V13.782C143.338 13.4461 143.328 13.0683 143.307 12.6485C143.286 12.2077 143.202 11.7879 143.055 11.3891C142.908 10.9693 142.677 10.6334 142.362 10.3815C142.047 10.1087 141.606 9.97222 141.04 9.97222C140.368 9.97222 139.843 10.1716 139.465 10.5704C139.088 10.9483 138.825 11.4416 138.678 12.0503C138.552 12.638 138.489 13.2572 138.489 13.9079V20.0791H135.372Z" fill="#1D1D1E"/>
<path d="M158.125 20.0791C157.726 20.0791 157.453 19.9637 157.306 19.7328C157.159 19.5019 157.086 19.229 157.086 18.9141C157.086 18.5993 157.159 18.3264 157.306 18.0955C157.453 17.8436 157.726 17.7177 158.125 17.7177C158.524 17.7177 158.797 17.8436 158.944 18.0955C159.091 18.3264 159.164 18.5993 159.164 18.9141C159.164 19.229 159.091 19.5019 158.944 19.7328C158.797 19.9637 158.524 20.0791 158.125 20.0791Z" fill="#7F7F8E"/>
<path d="M167.516 20.394C166.655 20.394 165.92 20.2785 165.312 20.0476C164.703 19.7957 164.199 19.4809 163.8 19.103C163.401 18.7252 163.087 18.3369 162.856 17.9381C162.625 17.5393 162.457 17.1719 162.352 16.8361C162.268 16.5002 162.226 16.2484 162.226 16.0804H163.643C163.643 16.1014 163.664 16.2798 163.706 16.6157C163.769 16.9305 163.916 17.2979 164.147 17.7177C164.399 18.1375 164.787 18.5048 165.312 18.8197C165.836 19.1135 166.571 19.2605 167.516 19.2605C168.208 19.2605 168.838 19.187 169.405 19.0401C169.971 18.8722 170.423 18.6203 170.759 18.2844C171.094 17.9276 171.262 17.4658 171.262 16.8991C171.262 16.2274 171.042 15.7131 170.601 15.3563C170.181 14.9784 169.636 14.7056 168.964 14.5376C168.292 14.3487 167.589 14.1808 166.854 14.0339C166.12 13.8659 165.417 13.656 164.745 13.4042C164.094 13.1523 163.559 12.7849 163.139 12.3022C162.74 11.8194 162.541 11.1582 162.541 10.3186C162.562 9.31102 163.034 8.50289 163.958 7.89417C164.881 7.26446 166.067 6.9496 167.516 6.9496C168.061 6.9496 168.639 7.01258 169.247 7.13852C169.856 7.26446 170.412 7.48486 170.916 7.79972C171.441 8.11457 171.861 8.54487 172.175 9.09063C172.511 9.63638 172.648 10.35 172.585 11.2316H171.199C171.22 10.5809 171.105 10.0562 170.853 9.65736C170.622 9.25855 170.297 8.95419 169.877 8.74428C169.478 8.51339 169.058 8.36646 168.618 8.30348C168.177 8.24051 167.778 8.20903 167.421 8.20903C166.435 8.20903 165.595 8.38745 164.902 8.74428C164.231 9.10112 163.895 9.64687 163.895 10.3815C163.895 10.9903 164.105 11.4625 164.524 11.7984C164.944 12.1342 165.49 12.3966 166.162 12.5855C166.833 12.7534 167.537 12.9109 168.271 13.0578C169.006 13.2047 169.709 13.4146 170.381 13.6875C171.052 13.9604 171.598 14.3487 172.018 14.8525C172.438 15.3563 172.648 16.0594 172.648 16.962C172.648 17.7807 172.417 18.4418 171.955 18.9456C171.514 19.4494 170.906 19.8167 170.129 20.0476C169.352 20.2785 168.481 20.394 167.516 20.394Z" fill="#7F7F8E"/>
<path d="M177.953 20.0791C177.302 20.0791 176.872 19.8902 176.662 19.5124C176.473 19.1345 176.378 18.6832 176.378 18.1585V8.20903H177.764V18.8512H180.755V20.0791H177.953ZM174.269 8.46091V7.29595C174.836 7.29595 175.266 7.27496 175.56 7.23298C175.854 7.19099 176.063 7.07555 176.189 6.88663C176.315 6.67673 176.389 6.35138 176.41 5.91058C176.452 5.44879 176.473 4.80858 176.473 3.98996H177.764V7.29595H180.755V8.46091H174.269Z" fill="#7F7F8E"/>
<path d="M188.68 20.394C187.883 20.394 187.19 20.2785 186.602 20.0476C186.036 19.8167 185.563 19.5019 185.185 19.103C184.808 18.6832 184.514 18.211 184.304 17.6862C184.094 17.1404 183.947 16.5527 183.863 15.923C183.779 15.2933 183.737 14.6426 183.737 13.9709V7.29595H185.154V13.9709C185.154 14.9155 185.248 15.7761 185.437 16.5527C185.647 17.3294 186.036 17.9486 186.602 18.4104C187.169 18.8512 187.977 19.0716 189.027 19.0716C190.034 19.0716 190.832 18.8407 191.42 18.3789C192.028 17.8961 192.48 17.2874 192.773 16.5527C193.067 15.7971 193.235 14.9994 193.277 14.1598V7.29595H194.757V20.0791H193.561L193.309 17.025H193.246C193.141 17.3608 192.973 17.7177 192.742 18.0955C192.511 18.4733 192.207 18.8407 191.829 19.1975C191.472 19.5543 191.031 19.8482 190.506 20.0791C189.982 20.289 189.373 20.394 188.68 20.394Z" fill="#7F7F8E"/>
<path d="M203.903 20.394C202.685 20.394 201.646 20.1001 200.786 19.5124C199.946 18.9246 199.306 18.1375 198.865 17.1509C198.424 16.1644 198.204 15.0624 198.204 13.845C198.204 12.6065 198.424 11.494 198.865 10.5075C199.327 9.52093 199.978 8.74428 200.817 8.17754C201.678 7.58981 202.717 7.29595 203.934 7.29595C204.795 7.29595 205.53 7.44288 206.138 7.73674C206.747 8.03061 207.23 8.38745 207.587 8.80725C207.944 9.22706 208.206 9.62588 208.374 10.0037C208.563 10.3605 208.689 10.6124 208.752 10.7594H208.815V2.35271H210.294V20.0791H209.098L208.846 16.9935H208.783C208.72 17.0985 208.584 17.3399 208.374 17.7177C208.185 18.0745 207.902 18.4628 207.524 18.8826C207.146 19.3025 206.653 19.6593 206.044 19.9532C205.456 20.247 204.742 20.394 203.903 20.394ZM204.092 19.0401C204.952 19.0401 205.729 18.8407 206.422 18.4418C207.135 18.043 207.702 17.4553 208.122 16.6787C208.542 15.881 208.752 14.9365 208.752 13.845C208.752 12.7534 208.552 11.8299 208.153 11.0742C207.776 10.2976 207.251 9.70984 206.579 9.31102C205.907 8.89122 205.152 8.68131 204.312 8.68131C203.263 8.68131 202.392 8.9332 201.699 9.43697C201.006 9.91975 200.481 10.56 200.125 11.3576C199.789 12.1342 199.621 12.9634 199.621 13.845C199.621 14.7056 199.768 15.5452 200.062 16.3638C200.376 17.1614 200.859 17.8121 201.51 18.3159C202.182 18.7987 203.042 19.0401 204.092 19.0401Z" fill="#7F7F8E"/>
<path d="M213.712 20.0791V7.29595H215.16V20.0791H213.712ZM214.468 5.24938C214.048 5.24938 213.754 5.14443 213.586 4.93453C213.439 4.70363 213.366 4.44125 213.366 4.14739C213.366 3.85352 213.439 3.60164 213.586 3.39173C213.754 3.18183 214.048 3.07688 214.468 3.07688C214.908 3.07688 215.192 3.18183 215.318 3.39173C215.465 3.60164 215.538 3.85352 215.538 4.14739C215.538 4.44125 215.465 4.70363 215.318 4.93453C215.192 5.14443 214.908 5.24938 214.468 5.24938Z" fill="#7F7F8E"/>
<path d="M224.049 20.394C222.727 20.394 221.614 20.1211 220.712 19.5753C219.83 19.0086 219.169 18.2319 218.728 17.2454C218.287 16.2588 218.067 15.1359 218.067 13.8764C218.067 12.596 218.287 11.4625 218.728 10.476C219.169 9.46845 219.83 8.69181 220.712 8.14606C221.614 7.57932 222.727 7.29595 224.049 7.29595C225.98 7.29595 227.45 7.90467 228.457 9.12211C229.486 10.3186 230 11.9033 230 13.8764C230 15.0939 229.79 16.2064 229.37 17.2139C228.95 18.2005 228.3 18.9771 227.418 19.5438C226.537 20.1106 225.414 20.394 224.049 20.394ZM224.049 19.103C225.225 19.103 226.138 18.8407 226.788 18.3159C227.439 17.7911 227.89 17.1299 228.142 16.3323C228.415 15.5137 228.552 14.6846 228.552 13.845C228.552 12.9843 228.415 12.1552 228.142 11.3576C227.89 10.539 227.439 9.86727 226.788 9.34251C226.138 8.81775 225.225 8.55537 224.049 8.55537C222.895 8.55537 221.982 8.81775 221.31 9.34251C220.638 9.86727 220.166 10.539 219.893 11.3576C219.641 12.1552 219.515 12.9843 219.515 13.845C219.515 14.6846 219.641 15.5137 219.893 16.3323C220.166 17.1299 220.638 17.7911 221.31 18.3159C221.982 18.8407 222.895 19.103 224.049 19.103Z" fill="#7F7F8E"/>
</svg>
