<svg width="19" height="19" viewBox="0 0 19 19" fill="none" xmlns="http://www.w3.org/2000/svg">
<path d="M16.3461 5.30077L10.1689 1.89505C9.96251 1.78061 9.7305 1.72023 9.49447 1.71952C9.25845 1.7188 9.02607 1.77777 8.81895 1.89095L2.6212 5.2591C2.39943 5.37957 2.21416 5.5575 2.08484 5.77423C1.95552 5.99095 1.88691 6.23849 1.8862 6.49086L1.86579 13.2141C1.86497 13.4665 1.93208 13.7144 2.06008 13.9319C2.18808 14.1494 2.37226 14.3285 2.59329 14.4503L8.77048 17.856C8.97687 17.9706 9.2089 18.031 9.44495 18.0318C9.681 18.0325 9.9134 17.9734 10.1205 17.8601L16.3182 14.492C16.54 14.3715 16.7253 14.1936 16.8546 13.9769C16.9839 13.7601 17.0525 13.5126 17.0532 13.2602L17.0736 6.53697C17.0745 6.28459 17.0073 6.03664 16.8793 5.81914C16.7513 5.60163 16.5672 5.42258 16.3461 5.30077ZM9.48923 3.4469L14.5433 6.23467L9.4724 8.98961L4.41834 6.20394L9.48923 3.4469ZM3.57015 7.66317L8.62422 10.4488L8.60785 15.8397L3.55379 13.0526L3.57015 7.66317ZM10.2953 15.8448L10.3117 10.454L15.3826 7.69902L15.3662 13.0885L10.2953 15.8448Z" fill="white" fill-opacity="0.7"/>
</svg>
