<svg width="21" height="20" viewBox="0 0 21 20" fill="none" xmlns="http://www.w3.org/2000/svg">
<path d="M17.6648 9.17032C17.6316 9.02171 17.5626 8.88344 17.464 8.76746C17.3653 8.65149 17.2398 8.5613 17.0984 8.50469L13.1 6.90547L13.9273 1.38907C13.9577 1.19098 13.9238 0.988371 13.8306 0.810963C13.7374 0.633554 13.5898 0.490682 13.4094 0.403303C13.2291 0.315923 13.0255 0.288636 12.8285 0.325443C12.6315 0.362249 12.4515 0.461213 12.3148 0.607819L3.56485 9.98282C3.46084 10.0942 3.38555 10.2293 3.34551 10.3763C3.30546 10.5233 3.30187 10.6779 3.33503 10.8267C3.3682 10.9754 3.43712 11.1138 3.53584 11.2299C3.63456 11.346 3.76009 11.4363 3.90157 11.493L7.9 13.0922L7.07266 18.6109C7.04229 18.809 7.0762 19.0116 7.1694 19.189C7.26261 19.3665 7.41022 19.5093 7.59057 19.5967C7.77092 19.6841 7.97452 19.7114 8.17152 19.6746C8.36851 19.6378 8.54853 19.5388 8.68516 19.3922L17.4352 10.0172C17.5396 9.90548 17.6152 9.7699 17.6552 9.62229C17.6952 9.47467 17.6985 9.31951 17.6648 9.17032ZM9.375 15.9024L9.86485 12.6391C9.89615 12.4302 9.85601 12.2169 9.75094 12.0337C9.64587 11.8505 9.48202 11.7081 9.28594 11.6297L5.87032 10.2633L11.625 4.09766L11.1352 7.36094C11.1039 7.5698 11.144 7.78311 11.2491 7.96631C11.3541 8.14951 11.518 8.29187 11.7141 8.37032L15.1297 9.73672L9.375 15.9024Z" fill="#F54A00"/>
</svg>
