<svg width="26" height="26" viewBox="0 0 26 26" fill="none" xmlns="http://www.w3.org/2000/svg">
<mask id="path-1-outside-1_1_550" maskUnits="userSpaceOnUse" x="0" y="0" width="26" height="26" fill="black">
<rect fill="white" width="26" height="26"/>
<path d="M1 5C1 2.79086 2.79086 1 5 1H21C23.2091 1 25 2.79086 25 5V21C25 23.2091 23.2091 25 21 25H5C2.79086 25 1 23.2091 1 21V5Z"/>
</mask>
<path d="M1 5C1 2.79086 2.79086 1 5 1H21C23.2091 1 25 2.79086 25 5V21C25 23.2091 23.2091 25 21 25H5C2.79086 25 1 23.2091 1 21V5Z" fill="#F2F2F2"/>
<path d="M5 1V2H21V1V0H5V1ZM25 5H24V21H25H26V5H25ZM21 25V24H5V25V26H21V25ZM1 21H2V5H1H0V21H1ZM5 25V24C3.34315 24 2 22.6569 2 21H1H0C0 23.7614 2.23858 26 5 26V25ZM25 21H24C24 22.6569 22.6569 24 21 24V25V26C23.7614 26 26 23.7614 26 21H25ZM21 1V2C22.6569 2 24 3.34315 24 5H25H26C26 2.23858 23.7614 0 21 0V1ZM5 1V0C2.23858 0 0 2.23858 0 5H1H2C2 3.34315 3.34315 2 5 2V1Z" fill="#CCCCCC" mask="url(#path-1-outside-1_1_550)"/>
<path d="M18.6328 18.6331H16.2621V14.9203C16.2621 14.035 16.2463 12.8953 15.0291 12.8953C13.7943 12.8953 13.6054 13.8599 13.6054 14.8559V18.6328H11.2347V10.9979H13.5106V12.0413H13.5424C13.7702 11.6519 14.0993 11.3315 14.4947 11.1143C14.8902 10.8971 15.3371 10.7913 15.7879 10.808C18.1907 10.808 18.6338 12.3885 18.6338 14.4447L18.6328 18.6331ZM8.55975 9.95429C8.28765 9.95434 8.02165 9.8737 7.79538 9.72257C7.56911 9.57143 7.39275 9.35659 7.28858 9.10522C7.18441 8.85385 7.15711 8.57722 7.21014 8.31034C7.26318 8.04345 7.39417 7.79828 7.58653 7.60584C7.7789 7.4134 8.02401 7.28232 8.29087 7.22919C8.55773 7.17606 8.83435 7.20325 9.08575 7.30734C9.33715 7.41142 9.55205 7.58772 9.70326 7.81394C9.85447 8.04016 9.9352 8.30615 9.93525 8.57825C9.93529 8.75892 9.89973 8.93783 9.83062 9.10476C9.76151 9.2717 9.66021 9.42338 9.53249 9.55116C9.40476 9.67893 9.2531 9.7803 9.0862 9.84947C8.9193 9.91864 8.74042 9.95426 8.55975 9.95429ZM9.7451 18.6331H7.37193V10.9979H9.7451V18.6331ZM19.8147 5.00109H6.18066C5.87121 4.9976 5.57301 5.11711 5.35163 5.33336C5.13024 5.54961 5.00378 5.84492 5 6.15438V19.8454C5.00365 20.155 5.13004 20.4505 5.35142 20.667C5.57279 20.8835 5.87105 21.0032 6.18066 20.9999H19.8147C20.1249 21.0038 20.424 20.8844 20.6462 20.6679C20.8685 20.4515 20.9957 20.1556 21 19.8454V6.15339C20.9956 5.84331 20.8683 5.54768 20.646 5.33143C20.4237 5.11518 20.1247 4.99601 19.8147 5.0001" fill="#1A1A1A"/>
</svg>
