<svg width="113" height="86" viewBox="0 0 113 86" fill="none" xmlns="http://www.w3.org/2000/svg">
<g clip-path="url(#clip0_109_13)">
<path fill-rule="evenodd" clip-rule="evenodd" d="M8.02577 68.1663L31.4637 28.1216L21.789 29.7032L5.50195 57.8691L12.7201 56.9437L11.2394 59.4844L1.14415 60.7967L18.8109 30.1912L7.35276 32.0588L1.52588e-05 21.9972L29.983 17L24.5652 25.3791L21.4525 25.9007L25.1373 20.1632L4.10543 23.6629L8.39594 29.535L35.9897 25.0258L17.5827 56.4726L32.4059 55.0424L40.2634 64.4984L8.02577 68.1663ZM16.1188 58.9628L12.4004 65.3228L35.6869 62.6812L31.3964 57.5158L16.1188 58.9628Z" fill="#BB962F"/>
<path d="M41.0879 40.6398V38.6039L45.5466 29.821C46.0514 28.7947 46.573 27.8524 47.0609 27.0112C46.4384 27.028 45.6812 27.0616 44.8063 27.0616H41.6599V25.0258H49.2482V27.0616L44.7726 35.8614C44.3352 36.6858 43.8472 37.6112 43.2415 38.6544C43.8809 38.6376 44.638 38.6039 45.4961 38.6039H49.3828V40.6398H41.0879Z" fill="#223970"/>
<path fill-rule="evenodd" clip-rule="evenodd" d="M56.4832 40.6398V39.8322C55.8775 40.522 55.0698 40.8754 54.0603 40.8754C53.0171 40.8754 52.2095 40.4884 51.6374 39.6639C51.1159 38.9404 50.8803 38.0487 50.8803 36.955C50.8803 34.549 52.2768 33.1188 54.6997 33.1188C55.339 33.1188 55.9448 33.2534 56.4832 33.5058V32.3617C56.4832 31.2512 55.9616 30.6959 54.9521 30.6959C54.2454 30.6959 53.4882 30.9315 52.6638 31.4194L51.7552 29.8042C52.8657 29.0639 53.9762 28.6769 55.1203 28.6769C57.6778 28.6769 58.62 29.6191 58.62 32.1766V40.6398H56.4832ZM56.4832 35.508C55.9952 35.222 55.4064 35.0538 54.7165 35.0538C53.5724 35.0538 53.0171 35.6931 53.0171 36.9046C53.0171 38.2674 53.5219 38.9404 54.4978 38.9404C55.4064 38.9404 56.0625 38.5871 56.4832 37.8468V35.508Z" fill="#223970"/>
<path fill-rule="evenodd" clip-rule="evenodd" d="M66.2083 40.6398V39.849C65.5521 40.5557 64.8455 40.8754 64.021 40.8754C61.6654 40.8754 60.4877 38.8058 60.4877 34.6668C60.4877 33.0683 60.7064 31.756 61.1607 30.7633C61.7888 29.3723 62.7927 28.6769 64.1724 28.6769C64.9464 28.6769 65.6363 28.9797 66.2083 29.5518V25.4969L68.3452 24.3696V40.6398H66.2083ZM66.2083 31.7391C65.7372 31.0493 65.1315 30.6959 64.3575 30.6959C63.2134 30.6959 62.6581 31.9747 62.6581 34.549C62.6581 37.4261 63.2639 38.8731 64.4585 38.8731C65.1988 38.8731 65.7821 38.5198 66.2083 37.8131V31.7391Z" fill="#223970"/>
<path fill-rule="evenodd" clip-rule="evenodd" d="M78.5077 35.508H72.3833C72.5179 37.7122 73.2414 38.8227 74.5874 38.8227C75.3614 38.8227 76.0849 38.5366 76.7074 37.9646L78.0198 39.3274C77.0776 40.3706 75.9334 40.8754 74.5369 40.8754C73.0226 40.8754 71.8953 40.2192 71.1382 38.89C70.5325 37.8468 70.2296 36.4839 70.2296 34.835C70.2296 33.1693 70.5325 31.8064 71.0877 30.7633C71.7944 29.3667 72.9217 28.6769 74.4023 28.6769C75.883 28.6769 76.9766 29.3499 77.6833 30.7128C78.2385 31.7896 78.5414 33.1188 78.5414 34.7509C78.5414 35.1042 78.5414 35.3566 78.5077 35.508ZM75.8998 31.7223C75.5633 31.0156 75.0585 30.6959 74.3687 30.6959C73.2245 30.6959 72.5852 31.6718 72.4001 33.6572H76.3541C76.3204 32.9001 76.169 32.2439 75.8998 31.7223Z" fill="#223970"/>
<path d="M85.7595 40.6398V33.4385C85.7595 32.6309 85.6922 32.042 85.5913 31.6718C85.3557 31.0156 84.9351 30.7128 84.3125 30.7128C83.5722 30.7128 82.9945 31.0717 82.5795 31.7896V40.6398H80.4259V25.4969L82.5795 24.3696V29.7369C83.1348 29.0302 83.8919 28.6769 84.851 28.6769C86.0792 28.6769 86.9205 29.1312 87.3916 30.0398C87.7281 30.7128 87.8964 31.7223 87.8964 33.0683V40.6398H85.7595Z" fill="#223970"/>
<path fill-rule="evenodd" clip-rule="evenodd" d="M48.5416 56.1024C47.6891 57.9308 46.3486 58.845 44.5203 58.845H40.7345V43.2309H44.5203C46.3879 43.2309 47.7339 44.089 48.5584 45.8557C49.1641 47.1513 49.467 48.8506 49.467 50.9707C49.467 53.0402 49.1641 54.7396 48.5416 56.1024ZM44.453 45.3678H42.9218V56.6913H44.5203C46.3206 56.6913 47.2123 54.7732 47.2123 50.9707C47.2123 47.2354 46.3038 45.3678 44.453 45.3678Z" fill="#223970"/>
<path fill-rule="evenodd" clip-rule="evenodd" d="M59.3772 53.7132H53.2359C53.3705 55.9174 54.1108 57.0278 55.4568 57.0278C56.2308 57.0278 56.9375 56.7418 57.5768 56.1697L58.8892 57.5158C57.947 58.5758 56.786 59.0805 55.4063 59.0805C53.8921 59.0805 52.7479 58.4075 51.9908 57.0951C51.3851 56.052 51.099 54.6891 51.099 53.0402C51.099 51.3745 51.3851 50.0116 51.9403 48.9516C52.6638 47.5719 53.7743 46.8821 55.2717 46.8821C56.7524 46.8821 57.8292 47.5551 58.5527 48.918C59.108 49.978 59.394 51.324 59.394 52.9561C59.394 53.3094 59.394 53.545 59.3772 53.7132ZM56.7692 49.9107C56.4327 49.2208 55.9111 48.8843 55.2213 48.8843C54.094 48.8843 53.4378 49.877 53.2695 51.8624H57.2067C57.1899 51.1053 57.0384 50.4491 56.7692 49.9107Z" fill="#223970"/>
<path d="M66.629 58.845V51.6269C66.629 50.8361 66.5617 50.2472 66.4439 49.877C66.2251 49.2208 65.8045 48.918 65.182 48.918C64.4416 48.918 63.8584 49.2713 63.4321 49.978V58.845H61.2953V47.1345H63.4321V47.9253C63.9874 47.2354 64.7445 46.8821 65.7036 46.8821C66.9318 46.8821 67.7899 47.3364 68.261 48.2449C68.5807 48.918 68.7658 49.9107 68.7658 51.2735V58.845H66.629Z" fill="#223970"/>
<path d="M75.6306 58.5421C75.0753 58.9123 74.4528 59.0805 73.7125 59.0805C72.2318 59.0805 71.4579 58.0878 71.4579 56.1024V49.1367H70.196V47.1345H71.4579V43.7189L73.6115 42.5747V47.1345H75.8661V49.1367H73.6115V55.9005C73.6115 56.6745 73.8976 57.0615 74.5033 57.0615C75.0417 57.0615 75.496 56.8932 75.883 56.5567L75.6306 58.5421Z" fill="#223970"/>
<path d="M79.0462 45.3005C78.3058 45.3005 77.7169 44.7116 77.7169 43.9881C77.7169 43.2478 78.3058 42.642 79.0462 42.642C79.7865 42.642 80.3586 43.2478 80.3586 43.9881C80.3586 44.6948 79.7697 45.3005 79.0462 45.3005ZM77.9862 58.845V47.1345H80.123V58.845H77.9862Z" fill="#223970"/>
<path d="M85.4567 59.0805C84.1779 59.0805 83.0002 58.6599 81.856 57.8355L82.6805 56.052C83.7573 56.725 84.6659 57.0615 85.4062 57.0615C86.4269 57.0615 86.9373 56.6352 86.9373 55.7827C86.9373 55.3958 86.7691 55.0424 86.4326 54.7396C86.1634 54.4872 85.5576 54.117 84.649 53.545C83.8414 53.0907 83.2694 52.6532 82.9328 52.2326C82.4786 51.6773 82.2598 50.9875 82.2598 50.1462C82.2598 48.0599 83.5386 46.8821 85.6081 46.8821C86.7859 46.8821 87.8291 47.2354 88.7881 47.9757L87.93 49.7761C87.1056 49.204 86.3148 48.918 85.5576 48.918C84.7837 48.918 84.3967 49.2545 84.3967 49.9443C84.3967 50.3649 84.6322 50.7688 85.0865 51.1389C85.2548 51.2735 85.6754 51.5427 86.3148 51.9297C87.3243 52.5186 88.0142 53.0234 88.3675 53.444C88.8386 53.9992 89.091 54.7396 89.091 55.6313C89.091 57.8523 87.7113 59.0805 85.4567 59.0805Z" fill="#223970"/>
<path d="M95.6024 58.5421C95.0472 58.9123 94.4247 59.0805 93.6843 59.0805C92.1869 59.0805 91.4297 58.0878 91.4297 56.1024V49.1367H90.151V47.1345H91.4297V43.7189L93.5666 42.5747V47.1345H95.8212V49.1367H93.5666V55.9005C93.5666 56.6745 93.8526 57.0615 94.4583 57.0615C94.9967 57.0615 95.4678 56.8932 95.838 56.5567L95.6024 58.5421Z" fill="#223970"/>
<path d="M103.14 49.4227C102.72 49.1872 102.232 49.0694 101.643 49.0694C100.953 49.0694 100.398 49.3891 99.9771 49.978V58.845H97.8234V47.1345H99.9771V47.9253C100.532 47.2354 101.222 46.8821 102.047 46.8821C102.697 46.8821 103.23 47.0167 103.645 47.2859L103.14 49.4227Z" fill="#223970"/>
<path d="M108.373 62.9672H106.287L107.549 58.845L104.301 47.1345H106.573L107.936 52.6869C108.222 53.9151 108.474 54.9583 108.625 55.8669C108.777 55.0424 109.012 53.9824 109.332 52.6532L110.729 47.1345H113L108.373 62.9672Z" fill="#223970"/>
</g>
<defs>
<clipPath id="clip0_109_13">
<rect width="113" height="86" fill="white"/>
</clipPath>
</defs>
</svg>
