<svg width="142" height="86" viewBox="0 0 142 86" fill="none" xmlns="http://www.w3.org/2000/svg">
<g clip-path="url(#clip0_109_112)">
<path fill-rule="evenodd" clip-rule="evenodd" d="M6.73912 31.9031C6.62731 31.9468 6.54609 32.0195 6.49671 32.12C6.43588 32.2439 6.43477 32.4189 6.494 32.5462C6.51603 32.5935 6.95794 33.3697 7.47601 34.2711C7.99406 35.1724 8.42188 35.9201 8.42669 35.9326C8.43365 35.9507 8.35593 35.975 8.04498 36.0519C3.90579 37.0748 1.10452 38.5875 0.266041 40.2525C-0.134191 41.0473 -0.082695 41.8779 0.416737 42.6831C0.698505 43.1374 1.26957 43.7046 1.86816 44.1246C2.91813 44.8613 4.38889 45.5373 6.13958 46.0876C8.56202 46.8492 11.6102 47.4202 14.6595 47.6836C14.9265 47.7067 15.1591 47.731 15.1763 47.7377C15.1965 47.7456 15.8309 48.8148 16.9526 50.7314C17.9123 52.3712 18.7272 53.7552 18.7636 53.807C18.8533 53.935 18.9568 54.0269 19.0729 54.0819C19.3105 54.1943 19.512 54.0939 19.6032 53.8179L19.6379 53.7128L19.6507 47.9024C19.6662 40.8979 19.6634 39.9316 19.6269 39.7666C19.5336 39.3452 19.3542 39.0627 19.022 38.8138C18.9566 38.7648 17.6049 37.967 16.0182 37.041C13.6868 35.6804 13.1401 35.3553 13.1682 35.3464C13.2104 35.333 13.9351 35.239 14.4089 35.1855C15.5751 35.0538 16.6425 34.9734 18.0659 34.9099C18.6597 34.8835 20.7974 34.8735 21.4879 34.8939C22.628 34.9277 23.4461 34.9733 24.4639 35.06C25.3399 35.1345 26.6219 35.2806 26.6137 35.305C26.6112 35.3121 25.299 36.0829 23.6976 37.0178C22.0962 37.9528 20.7395 38.7507 20.6827 38.791C20.626 38.8313 20.5229 38.921 20.4536 38.9902C20.2433 39.2006 20.1212 39.4323 20.0532 39.7505L20.0181 39.9149L20.0222 46.7277C20.0244 50.4748 20.0324 53.5904 20.0399 53.6514C20.0868 54.0342 20.2916 54.2029 20.5796 54.0957C20.6556 54.0675 20.6974 54.0365 20.7988 53.9333C20.9228 53.8071 20.9433 53.773 22.6782 50.8089C23.643 49.1607 24.4394 47.8025 24.448 47.7907C24.4594 47.7751 24.5904 47.7587 24.9335 47.7302C31.2597 47.2033 36.3734 45.7185 38.7627 43.7149C38.9516 43.5564 39.3019 43.2037 39.4335 43.0394C39.7708 42.6184 39.9782 42.201 40.0717 41.7552C40.1168 41.5399 40.121 41.1617 40.0807 40.9408C39.9989 40.4933 39.75 39.9947 39.4004 39.5782C39.2282 39.3731 38.8643 39.0215 38.6295 38.8335C37.4118 37.8583 35.5608 37.0152 33.1088 36.3188C32.7118 36.206 31.8412 35.9843 31.4526 35.8969C31.3686 35.878 31.2999 35.8565 31.2999 35.8491C31.2999 35.8418 31.7203 35.1044 32.2342 34.2105C32.8027 33.2216 33.1803 32.5485 33.1987 32.4913C33.2753 32.2535 33.1855 32.0281 32.9697 31.9161C32.8723 31.8655 32.6521 31.8585 32.5108 31.9015C32.4296 31.9263 31.7504 32.3157 29.6695 33.5308L26.935 35.1275L26.686 35.098C25.9912 35.0155 24.929 34.9191 24.1191 34.8649C20.9128 34.6503 17.7105 34.6898 14.5655 34.9826C14.1626 35.0201 13.145 35.1315 12.929 35.1618C12.8331 35.1752 12.8229 35.1735 12.7489 35.1316C12.7058 35.1072 11.4559 34.3779 9.97139 33.511C8.39011 32.5875 7.23418 31.9219 7.18021 31.9037C7.05783 31.8625 6.84369 31.8622 6.73912 31.9031ZM31.505 36.2902C34.4967 37.1553 36.4568 38.3512 36.9779 39.6293C37.2525 40.3028 37.1399 40.9649 36.6351 41.6455C36.491 41.8398 36.1179 42.2104 35.8809 42.3947C34.3016 43.6228 31.5251 44.5966 27.8622 45.2073C27.0268 45.3466 25.746 45.5118 24.9335 45.5851C24.8818 45.5897 24.8131 45.5974 24.7807 45.6021L24.7219 45.6107L24.7299 41.7072L29.397 39.1463L30.2496 37.663C30.7184 36.8472 31.1067 36.1797 31.1124 36.1797C31.1181 36.1797 31.2948 36.2294 31.505 36.2902ZM9.45885 37.7217L10.2771 39.1453L14.9414 41.7048L14.9547 43.6261C14.962 44.6829 14.9639 45.5515 14.959 45.5564C14.9403 45.5751 13.7586 45.4361 12.9994 45.326C9.70074 44.8475 6.96991 44.0463 5.17639 43.0308C4.90222 42.8756 4.43176 42.5613 4.2132 42.3875C3.97431 42.1974 3.62365 41.8432 3.47353 41.6402C3.15928 41.2154 3.01983 40.8562 3.00364 40.4298C2.99354 40.1636 3.0134 40.0082 3.08643 39.7817C3.2458 39.2875 3.63237 38.786 4.2132 38.3199C4.42521 38.1498 4.89316 37.8367 5.17639 37.6755C5.68172 37.3878 6.41026 37.0545 7.0871 36.8014C7.58476 36.6153 8.58653 36.2861 8.62736 36.2952C8.63464 36.2968 9.00881 36.9387 9.45885 37.7217Z" fill="#1D1D1F"/>
<path fill-rule="evenodd" clip-rule="evenodd" d="M70.3077 36.3402C67.1313 36.4783 64.6566 37.856 63.4596 40.1526C63.1281 40.7886 62.9253 41.3852 62.7809 42.149C62.6942 42.6081 62.6767 43.7892 62.7493 44.2898C62.8693 45.1184 63.0781 45.7819 63.4399 46.4847C63.8386 47.2592 64.3966 47.9543 65.0698 48.5151C66.1206 49.3903 67.6404 50.0237 69.2173 50.2436C71.832 50.6083 74.2381 50.1309 75.8781 48.9221C76.247 48.6503 76.8372 48.0625 77.0974 47.708C77.6352 46.9753 77.9945 46.12 78.166 45.164L78.2324 44.7936H77.2835C76.7616 44.7936 76.3345 44.8032 76.3345 44.8149C76.3345 44.8266 76.3019 44.9964 76.262 45.1921C75.8625 47.1528 74.3118 48.5493 72.1068 48.9343C71.5072 49.0389 70.3989 49.0493 69.732 48.9565C67.7436 48.6798 66.2687 47.7945 65.3933 46.3522C64.2791 44.5166 64.3106 41.9839 65.4699 40.206C66.479 38.6584 68.1464 37.7997 70.3959 37.6689C71.707 37.5928 72.9176 37.8113 73.8946 38.3007C74.4461 38.5768 74.7017 38.7583 75.1232 39.1731C75.5526 39.5956 75.837 40.049 76.0304 40.6198L76.1097 40.8537L77.0497 40.8633C77.7896 40.8708 77.9895 40.8632 77.9889 40.8273C77.9869 40.712 77.8432 40.1457 77.7598 39.9248C77.0789 38.1205 75.1023 36.8213 72.4431 36.4302C72.2323 36.3991 71.8842 36.3653 71.6695 36.355C71.4549 36.3446 71.1902 36.3315 71.0813 36.3257C70.9725 36.3199 70.6244 36.3265 70.3077 36.3402ZM100.532 36.3433C96.433 36.5152 93.5418 38.8168 93.0114 42.3301C92.932 42.8558 92.9316 43.8186 93.0107 44.3438C93.2451 45.9033 93.87 47.1266 94.9772 48.1938C95.7355 48.9247 96.6334 49.4591 97.7351 49.8353C99.4738 50.429 101.736 50.5284 103.68 50.0964C105.318 49.7323 106.783 48.9071 107.75 47.8037C110.164 45.0502 109.892 40.6579 107.162 38.2893C105.531 36.874 103.324 36.2262 100.532 36.3433ZM53.2428 36.9222C52.8753 37.608 46.4002 49.9642 46.3779 50.0223C46.3565 50.0781 46.434 50.0828 47.3753 50.0828H48.3958L50.4458 45.9809L58.1462 45.9828L60.2248 50.0828H62.2694L61.4593 48.4906C61.0137 47.6149 59.4688 44.5831 58.026 41.7532L55.4027 36.6079L53.4215 36.5888L53.2428 36.9222ZM78.6013 37.9212H84.6102V50.0828H86.4812V37.9212H92.49V36.5899H78.6013V37.9212ZM111.704 50.0828H113.575V43.7861H121.814V42.4548H113.575V37.9212H122.858V36.5899H111.704V50.0828ZM124.765 50.0828H126.636V36.5899H124.765V50.0828ZM128.111 37.9212H134.12V50.0828H136.027V37.9212H142V36.5899H128.111V37.9212ZM101.703 37.6689C103.514 37.7742 104.868 38.3179 105.913 39.3594C106.692 40.1352 107.142 40.979 107.392 42.131C107.464 42.4627 107.474 42.6097 107.474 43.3363C107.474 44.0625 107.464 44.2102 107.392 44.5417C106.978 46.4521 105.855 47.8029 104.082 48.5222C103.678 48.686 102.944 48.8743 102.401 48.9536C101.885 49.029 100.554 49.0397 100.082 48.9725C98.6617 48.7698 97.6375 48.3581 96.7498 47.6328C94.8704 46.0974 94.2806 43.1495 95.3851 40.8118C96.1224 39.2512 97.5731 38.1788 99.4343 37.8187C99.9904 37.7111 100.092 37.698 100.586 37.67C100.833 37.6559 101.052 37.6422 101.071 37.6394C101.091 37.6366 101.375 37.6499 101.703 37.6689ZM55.8951 41.4619C56.7473 43.2008 57.4445 44.6293 57.4445 44.6365C57.4445 44.6437 56.0197 44.6496 54.2782 44.6496C52.5367 44.6496 51.1119 44.64 51.1119 44.6282C51.1119 44.592 54.322 38.2768 54.3342 38.289C54.3405 38.2953 55.0429 39.7231 55.8951 41.4619Z" fill="#1D1D1F"/>
</g>
<defs>
<clipPath id="clip0_109_112">
<rect width="142" height="86" fill="white" transform="translate(-0.000244141)"/>
</clipPath>
</defs>
</svg>
