<svg width="139" height="34" viewBox="0 0 139 34" fill="none" xmlns="http://www.w3.org/2000/svg">
<path d="M45.0742 28.694C43.5752 28.694 42.2261 28.5455 41.0269 28.2486C39.8508 27.9744 38.8361 27.5518 37.9828 26.9807C37.1526 26.3868 36.4954 25.6558 36.0111 24.7877C35.614 24.0206 35.3622 23.1604 35.2557 22.2071C35.2249 21.9315 35.4012 21.6782 35.6673 21.5924L38.8056 20.5808C39.192 20.4563 39.5897 20.732 39.6569 21.129C39.7725 21.8116 39.9985 22.403 40.3351 22.9031C40.8194 23.5884 41.4997 24.091 42.376 24.4108C43.2524 24.7306 44.2325 24.8905 45.3163 24.8905C46.3541 24.8905 47.2304 24.7649 47.9453 24.5136C48.6602 24.2623 49.2022 23.9311 49.5712 23.5199C49.9401 23.0858 50.1246 22.6175 50.1246 22.115C50.1246 21.521 49.894 21.0413 49.4328 20.6758C48.9716 20.3103 48.3374 20.0019 47.5302 19.7506C46.7461 19.4993 45.8468 19.2595 44.8321 19.031C43.702 18.7797 42.5836 18.4942 41.4766 18.1744C40.3927 17.8546 39.4011 17.4434 38.5017 16.9408C37.6254 16.4382 36.922 15.7872 36.3916 14.9876C35.8842 14.1881 35.6306 13.183 35.6306 11.9722C35.6306 10.5788 35.9765 9.37944 36.6683 8.37431C37.3832 7.34633 38.421 6.54679 39.7816 5.97569C41.1422 5.40459 42.7796 5.11904 44.6937 5.11904C46.6308 5.11904 48.2797 5.40459 49.6404 5.97569C51.024 6.52395 52.0964 7.31206 52.8574 8.34004C53.5285 9.22642 53.9306 10.2638 54.0637 11.4522C54.0954 11.7353 53.9058 11.992 53.6286 12.068L50.3845 12.9579C49.993 13.0653 49.6088 12.772 49.5516 12.3735C49.4964 11.9894 49.3992 11.6386 49.2598 11.3212C49.0292 10.7958 48.7064 10.3617 48.2913 10.0191C47.8762 9.65357 47.3573 9.37944 46.7346 9.19669C46.135 9.01394 45.4432 8.92256 44.6591 8.92256C43.7597 8.92256 42.9756 9.03678 42.3068 9.26522C41.6611 9.49366 41.1653 9.80206 40.8194 10.1904C40.4965 10.5788 40.3351 11.0356 40.3351 11.561C40.3351 12.1778 40.5888 12.6918 41.0961 13.103C41.6265 13.4914 42.3184 13.8112 43.1716 14.0625C44.048 14.3137 45.005 14.5536 46.0428 14.782C47.0344 14.9876 48.0376 15.2503 49.0523 15.5702C50.09 15.8671 51.0471 16.2669 51.9234 16.7695C52.8228 17.2492 53.5377 17.9117 54.0681 18.7569C54.6216 19.5793 54.8983 20.6187 54.8983 21.8751C54.8983 23.2457 54.5294 24.445 53.7914 25.473C53.0534 26.501 51.9465 27.3005 50.4706 27.8716C49.0177 28.4199 47.2189 28.694 45.0742 28.694Z" fill="#224750"/>
<path d="M57.4175 28.2143C57.078 28.2143 56.8028 27.9417 56.8028 27.6054V4.32308C56.8028 3.98677 57.078 3.71414 57.4175 3.71414H61.1001C61.4396 3.71414 61.7149 3.98677 61.7149 4.32307V16.1697C61.7149 16.6581 62.2639 16.9442 62.6576 16.6503C63.0342 16.3692 63.4002 16.0777 63.7558 15.7758C64.4246 15.2047 65.0242 14.6107 65.5546 13.9939C66.1081 13.3771 66.5923 12.7489 67.0075 12.1093C67.3649 11.5876 67.6762 11.0734 67.9416 10.5669C68.0503 10.3592 68.2645 10.2247 68.5007 10.2247H72.9185C73.3522 10.2247 73.6478 10.6572 73.4623 11.0455C73.1753 11.646 72.834 12.2519 72.4384 12.8631C71.8849 13.7312 71.2161 14.5422 70.4321 15.296C69.671 16.027 68.7832 16.6552 67.7685 17.1807C66.8214 17.671 65.784 18.0122 64.6561 18.2041C64.5166 18.2278 64.413 18.3466 64.413 18.4867C64.413 18.6633 64.5744 18.7966 64.7505 18.7696C66.1455 18.5563 67.3129 18.5977 68.2528 18.894C69.2675 19.2138 70.0977 19.7278 70.7434 20.4359C71.4122 21.1212 71.9426 21.9208 72.3346 22.8345C72.7267 23.7255 73.0841 24.6278 73.407 25.5416L73.9701 27.4331C74.0862 27.8232 73.791 28.2143 73.3804 28.2143H69.2446C68.9658 28.2143 68.7219 28.0284 68.6504 27.7615L68.3219 26.5353C67.9991 25.4159 67.6416 24.4336 67.2496 23.5884C66.8576 22.7432 66.3387 22.0921 65.693 21.6352C65.0703 21.1555 64.2055 20.9156 63.0985 20.9156H62.3296C61.9901 20.9156 61.7149 21.1883 61.7149 21.5246V27.6054C61.7149 27.9417 61.4396 28.2143 61.1001 28.2143H57.4175Z" fill="#224750"/>
<path d="M76.4188 28.2143C76.0793 28.2143 75.8041 27.9417 75.8041 27.6054V10.8336C75.8041 10.4973 76.0793 10.2247 76.4188 10.2247H80.1706C80.5101 10.2247 80.7854 10.4973 80.7854 10.8336V27.6054C80.7854 27.9417 80.5101 28.2143 80.1706 28.2143H76.4188ZM78.3293 7.51766C77.3607 7.51766 76.6113 7.32348 76.0808 6.93514C75.5735 6.52395 75.3198 5.93 75.3198 5.15331C75.3198 4.35377 75.5735 3.74841 76.0808 3.33721C76.6113 2.92602 77.3607 2.72043 78.3293 2.72043C79.321 2.72043 80.0705 2.92602 80.5778 3.33721C81.1082 3.74841 81.3734 4.35377 81.3734 5.15331C81.3734 5.90716 81.1082 6.48968 80.5778 6.90087C80.0705 7.31206 79.321 7.51766 78.3293 7.51766Z" fill="#224750"/>
<path d="M84.779 28.2143C84.4395 28.2143 84.1643 27.9417 84.1643 27.6054V4.32308C84.1643 3.98677 84.4395 3.71414 84.779 3.71414H88.4616C88.8011 3.71414 89.0764 3.98677 89.0764 4.32307V27.6054C89.0764 27.9417 88.8011 28.2143 88.4616 28.2143H84.779Z" fill="#224750"/>
<path d="M93.1392 28.2143C92.7997 28.2143 92.5245 27.9417 92.5245 27.6054V4.32308C92.5245 3.98677 92.7997 3.71414 93.1392 3.71414H96.8218C97.1613 3.71414 97.4366 3.98677 97.4366 4.32307V27.6054C97.4366 27.9417 97.1613 28.2143 96.8218 28.2143H93.1392Z" fill="#224750"/>
<path d="M107.042 28.694C104.92 28.694 103.318 27.9859 102.234 26.5695C101.173 25.1304 100.643 22.9488 100.643 20.0247V10.8336C100.643 10.4973 100.918 10.2247 101.257 10.2247H105.009C105.349 10.2247 105.624 10.4973 105.624 10.8336V19.4079C105.624 21.1669 105.889 22.4805 106.419 23.3485C106.95 24.1938 107.757 24.6164 108.841 24.6164C109.487 24.6164 110.052 24.4565 110.536 24.1366C111.02 23.8168 111.435 23.3714 111.781 22.8003C112.127 22.2292 112.381 21.5553 112.542 20.7786C112.727 20.0019 112.83 19.1681 112.854 18.2772V10.8336C112.854 10.4973 113.129 10.2247 113.468 10.2247H117.22C117.56 10.2247 117.835 10.4973 117.835 10.8336V27.6054C117.835 27.9417 117.56 28.2143 117.22 28.2143H114.433C114.095 28.2143 113.82 27.9439 113.818 27.6091L113.79 22.9389C113.788 22.7485 113.632 22.5947 113.44 22.5947C113.279 22.5947 113.138 22.7042 113.098 22.8592C112.763 24.1567 112.347 25.2336 111.85 26.0898C111.343 26.9807 110.686 27.6432 109.879 28.0772C109.095 28.4884 108.149 28.694 107.042 28.694Z" fill="#44B07A"/>
<path fill-rule="evenodd" clip-rule="evenodd" d="M120.528 10.8336C120.528 10.4973 120.803 10.2247 121.143 10.2247H124.034C124.372 10.2247 124.646 10.4948 124.648 10.8294L124.677 14.9108C124.678 15.0888 124.819 15.2352 124.998 15.2451C125.171 15.2546 125.323 15.1338 125.356 14.9655C125.569 13.8843 125.908 12.9665 126.374 12.2121C126.904 11.3897 127.585 10.7729 128.415 10.3617C129.245 9.95054 130.202 9.74495 131.286 9.74495C132.9 9.74495 134.284 10.1447 135.437 10.9443C136.59 11.721 137.466 12.8289 138.066 14.2681C138.689 15.6844 139 17.3634 139 19.3051C139 21.1098 138.723 22.7203 138.17 24.1366C137.616 25.5301 136.786 26.6381 135.679 27.4604C134.595 28.2828 133.235 28.694 131.597 28.694C130.444 28.694 129.464 28.477 128.657 28.043C127.873 27.6089 127.216 27.0036 126.685 26.2269C126.214 25.4838 125.812 24.6124 125.48 23.6128C125.434 23.4764 125.307 23.3828 125.162 23.3828C124.949 23.3828 124.792 23.5774 124.836 23.783C124.941 24.2708 125.038 24.7656 125.129 25.2674C125.244 25.9071 125.336 26.5353 125.405 27.1521C125.475 27.746 125.509 28.3285 125.509 28.8996V33.362C125.509 33.6983 125.234 33.971 124.894 33.971H121.143C120.803 33.971 120.528 33.6983 120.528 33.362V10.8336ZM131.978 24.0681C131.401 24.525 130.698 24.7534 129.868 24.7534C129.314 24.7534 128.807 24.6506 128.346 24.445C127.884 24.2166 127.481 23.9311 127.135 23.5884C126.789 23.2229 126.489 22.8231 126.236 22.3891C125.982 21.9322 125.797 21.4753 125.682 21.0184C125.567 20.5387 125.509 20.0818 125.509 19.6478V18.9968C125.509 18.4485 125.59 17.8774 125.751 17.2835C125.913 16.6667 126.166 16.0956 126.512 15.5702C126.881 15.0447 127.331 14.6221 127.861 14.3023C128.392 13.9825 129.026 13.8226 129.764 13.8226C130.594 13.8226 131.309 14.051 131.909 14.5079C132.508 14.9648 132.969 15.6044 133.292 16.4268C133.615 17.2263 133.777 18.1972 133.777 19.3394C133.777 20.3902 133.615 21.3268 133.292 22.1492C132.993 22.9716 132.554 23.6112 131.978 24.0681Z" fill="#44B07A"/>
<path d="M25.5878 6.45865C26.6045 7.03969 26.6045 8.49324 25.5878 9.07425L23.1091 10.4907C22.6377 10.7601 22.0571 10.7601 21.5858 10.4907L14.6975 6.55323C14.2259 6.28347 13.6447 6.28352 13.1731 6.55335L7.81138 9.61892C6.79499 10.1998 6.79462 11.6528 7.81073 12.2341L11.6504 14.4294C12.6668 15.0104 12.6669 16.4635 11.6506 17.0447L9.17325 18.4623C8.70159 18.7323 8.12033 18.7324 7.64857 18.4626L0.763587 14.5239C0.292127 14.2543 0.00160994 13.7561 0.00141461 13.2169L-0.000244042 8.63784C-0.000439473 8.09831 0.290014 7.59968 0.761665 7.32985L13.176 0.231177C13.6476 -0.0384247 14.2286 -0.0383149 14.7001 0.231464L25.5878 6.45865Z" fill="#44B07A"/>
<path d="M27.1126 16.9496C27.5839 17.2192 27.8743 17.7174 27.8745 18.2565L27.8761 22.8358C27.8763 23.3753 27.5859 23.8739 27.1143 24.1437L14.7023 31.2443C14.2306 31.5141 13.6494 31.5141 13.1778 31.2443L2.28755 25.0144C1.27072 24.4338 1.2701 22.9804 2.28642 22.3989L4.76423 20.9813C5.23574 20.7115 5.81671 20.7114 6.28833 20.981L13.1716 24.918C13.6432 25.1878 14.2243 25.1879 14.696 24.9182L20.058 21.8525C21.0743 21.2716 21.0745 19.8187 20.0585 19.2374L16.2245 17.0443C15.2082 16.4634 15.2079 15.0105 16.224 14.4292L18.7027 13.011C19.1743 12.7411 19.7555 12.7411 20.2272 13.0109L27.1126 16.9496Z" fill="#44B07A"/>
</svg>
