<svg width="118" height="86" viewBox="0 0 118 86" fill="none" xmlns="http://www.w3.org/2000/svg">
<g clip-path="url(#clip0_109_43)">
<path d="M46.4839 53.559C46.687 51.5952 47.9568 50.5963 50.3101 50.5963C51.3936 50.5963 52.2739 50.8164 52.9173 51.2396C53.5606 51.6798 53.8992 52.3401 53.8992 53.2374V57.673C53.8992 57.927 53.9161 58.0963 53.9839 58.1809C54.0516 58.2825 54.1701 58.3164 54.3563 58.3164C54.4918 58.3164 54.6272 58.3164 54.7965 58.2825V59.6369C54.2886 59.7723 53.8823 59.8231 53.5437 59.8231C52.7141 59.8231 52.2401 59.4845 52.1216 58.7735C51.3766 59.4845 50.3608 59.8231 49.0572 59.8231C48.143 59.8231 47.432 59.603 46.9071 59.129C46.3654 58.655 46.1114 58.0286 46.1114 57.2159C46.1114 56.9789 46.1283 56.7419 46.1961 56.5218C46.2469 56.3186 46.3146 56.1324 46.3823 55.9631C46.45 55.8107 46.5685 55.6584 46.7378 55.5229C46.9071 55.3875 47.0426 55.2859 47.1441 55.1843C47.2457 55.0997 47.432 55.015 47.669 54.9304C47.906 54.8626 48.0922 54.7949 48.2107 54.7611C48.3292 54.7272 48.5324 54.6764 48.8371 54.6256C49.125 54.5918 49.3112 54.5579 49.4128 54.541C49.5143 54.524 49.7175 54.4902 50.0222 54.4563C50.6994 54.3717 51.1735 54.304 51.4274 54.2362C51.6645 54.1685 51.8338 54.0839 51.9353 53.9484C52.0031 53.8638 52.0538 53.6606 52.0538 53.322C52.0538 52.4417 51.4444 52.0015 50.2593 52.0015C49.6159 52.0015 49.1588 52.12 48.871 52.357C48.5663 52.594 48.38 53.0003 48.3123 53.559H46.4839ZM52.0369 55.2182C51.8845 55.3028 51.7152 55.3705 51.529 55.4383C51.3259 55.506 51.1735 55.5398 51.055 55.5568C50.9365 55.5737 50.7502 55.5906 50.4963 55.6245C50.2423 55.6584 50.073 55.6922 50.0053 55.6922C49.7683 55.7261 49.5821 55.7599 49.4466 55.7938C49.3112 55.8277 49.1419 55.8615 48.9387 55.9292C48.7356 55.997 48.5832 56.0816 48.4816 56.1832C48.38 56.2848 48.2785 56.4033 48.2107 56.5726C48.1261 56.7419 48.0922 56.9281 48.0922 57.1482C48.0922 57.5714 48.2277 57.8931 48.4985 58.1132C48.7694 58.3502 49.1588 58.4518 49.6667 58.4518C50.5132 58.4518 51.1735 58.2317 51.6475 57.7577C51.9015 57.5037 52.0369 56.9958 52.0369 56.2509V55.2182Z" fill="#38A56F"/>
<path d="M64.0684 56.3017C63.933 57.3852 63.4928 58.2317 62.7818 58.8751C62.0538 59.5184 61.1396 59.8231 60.056 59.8231C58.7355 59.8231 57.7028 59.4168 56.924 58.5872C56.1452 57.7577 55.7558 56.6742 55.7558 55.3198C55.7558 53.8807 56.1452 52.7295 56.924 51.883C57.7028 51.0365 58.7694 50.5963 60.1068 50.5963C61.2242 50.5963 62.1215 50.8841 62.7987 51.4428C63.4759 52.0184 63.8822 52.7972 64.0007 53.7961H62.0876C61.9691 53.2543 61.749 52.831 61.4104 52.5263C61.0718 52.2385 60.6317 52.0861 60.1238 52.0861C59.3788 52.0861 58.7863 52.3739 58.363 52.9326C57.9229 53.4913 57.7197 54.2532 57.7197 55.2182C57.7197 56.2001 57.9229 56.945 58.3292 57.4868C58.7355 58.0286 59.3111 58.2994 60.056 58.2994C60.6317 58.2994 61.0888 58.1301 61.4612 57.7915C61.8337 57.4529 62.0707 56.945 62.1723 56.3017H64.0684Z" fill="#38A56F"/>
<path d="M65.6372 53.559C65.8404 51.5952 67.1102 50.5963 69.4634 50.5963C70.5469 50.5963 71.4273 50.8164 72.0706 51.2396C72.714 51.6798 73.0526 52.3401 73.0526 53.2374V57.673C73.0526 57.927 73.0695 58.0963 73.1372 58.1809C73.205 58.2825 73.3235 58.3164 73.5097 58.3164C73.6451 58.3164 73.7806 58.3164 73.9499 58.2825V59.6369C73.442 59.7723 73.0357 59.8231 72.6971 59.8231C71.8675 59.8231 71.3934 59.4845 71.2749 58.7735C70.53 59.4845 69.5142 59.8231 68.2106 59.8231C67.2964 59.8231 66.5853 59.603 66.0605 59.129C65.5187 58.655 65.2648 58.0286 65.2648 57.2159C65.2648 56.9789 65.2817 56.7419 65.3494 56.5218C65.4002 56.3186 65.4679 56.1324 65.5357 55.9631C65.6034 55.8107 65.7219 55.6584 65.8912 55.5229C66.0605 55.3875 66.1959 55.2859 66.2975 55.1843C66.3991 55.0997 66.5853 55.015 66.8223 54.9304C67.0594 54.8626 67.2456 54.7949 67.3641 54.7611C67.4826 54.7272 67.6858 54.6764 67.9905 54.6256C68.2783 54.5918 68.4646 54.5579 68.5661 54.541C68.6677 54.524 68.8709 54.4902 69.1756 54.4563C69.8528 54.3717 70.3269 54.304 70.5808 54.2362C70.8178 54.1685 70.9871 54.0839 71.0887 53.9484C71.1564 53.8638 71.2072 53.6606 71.2072 53.322C71.2072 52.4417 70.5977 52.0015 69.4126 52.0015C68.7693 52.0015 68.3122 52.12 68.0244 52.357C67.7196 52.594 67.5334 53.0003 67.4657 53.559H65.6372ZM71.1903 55.2182C71.0379 55.3028 70.8686 55.3705 70.6824 55.4383C70.4792 55.506 70.3269 55.5398 70.2083 55.5568C70.0898 55.5737 69.9036 55.5906 69.6497 55.6245C69.3957 55.6584 69.2264 55.6922 69.1587 55.6922C68.9217 55.7261 68.7354 55.7599 68.6 55.7938C68.4646 55.8277 68.2953 55.8615 68.0921 55.9292C67.8889 55.997 67.7366 56.0816 67.635 56.1832C67.5334 56.2848 67.4318 56.4033 67.3641 56.5726C67.2795 56.7419 67.2456 56.9281 67.2456 57.1482C67.2456 57.5714 67.381 57.8931 67.6519 58.1132C67.9228 58.3502 68.3122 58.4518 68.8201 58.4518C69.6666 58.4518 70.3269 58.2317 70.8009 57.7577C71.0548 57.5037 71.1903 56.9958 71.1903 56.2509V55.2182Z" fill="#38A56F"/>
<path d="M83.5773 47.5489V59.603H81.7658V58.401C81.2071 59.366 80.276 59.8401 78.9724 59.8401C77.7365 59.8401 76.7546 59.4337 76.0266 58.5872C75.2986 57.7577 74.9431 56.6403 74.9431 55.2182C74.9431 53.8299 75.2986 52.7125 76.0096 51.883C76.7207 51.0534 77.6857 50.6301 78.9047 50.6301C80.1236 50.6301 81.0548 51.0873 81.6812 52.0015V47.5489H83.5773ZM79.2602 52.1877C78.5153 52.1877 77.9397 52.4586 77.5164 53.0003C77.0932 53.5421 76.89 54.2701 76.89 55.1843C76.89 56.1493 77.0932 56.9112 77.5333 57.4529C77.9735 58.0116 78.5661 58.2825 79.3279 58.2825C80.0728 58.2825 80.6654 58.0116 81.0886 57.4699C81.5119 56.9281 81.732 56.1832 81.732 55.2182C81.732 54.2701 81.5119 53.5252 81.0717 52.9834C80.6315 52.4586 80.039 52.1877 79.2602 52.1877Z" fill="#38A56F"/>
<path d="M93.6393 56.8773C93.4192 57.8254 92.9452 58.5703 92.2341 59.0951C91.5231 59.6369 90.6596 59.8909 89.6777 59.8909C88.3572 59.8909 87.3075 59.4676 86.5287 58.6211C85.7499 57.7746 85.3775 56.6742 85.3775 55.3367C85.3775 53.9823 85.7669 52.848 86.5626 51.9507C87.3583 51.0703 88.3741 50.6132 89.61 50.6132C90.8797 50.6132 91.8955 51.0534 92.6404 51.9338C93.3854 52.8141 93.7578 53.9992 93.7578 55.506V55.7091H87.3075C87.3244 56.5895 87.5445 57.2836 87.9678 57.7577C88.3741 58.2317 88.9666 58.4687 89.7116 58.4687C90.2364 58.4687 90.6596 58.3502 90.9982 58.0963C91.3368 57.8423 91.5908 57.436 91.7939 56.8773H93.6393ZM91.8278 54.4225C91.7601 53.6945 91.54 53.1189 91.1337 52.6956C90.7274 52.2724 90.2195 52.0523 89.593 52.0523C88.9497 52.0523 88.4418 52.2554 88.0524 52.6617C87.663 53.0681 87.426 53.6606 87.3414 54.4225H91.8278Z" fill="#38A56F"/>
<path d="M97.2397 50.8672V52.1031C97.9508 51.1211 98.865 50.6301 99.9824 50.6301C100.558 50.6301 101.049 50.7656 101.472 51.0195C101.895 51.2904 102.217 51.6459 102.42 52.12C103.114 51.138 104.062 50.6301 105.248 50.6301C106.06 50.6301 106.754 50.8841 107.296 51.3751C107.838 51.866 108.109 52.5432 108.109 53.4067V59.603H106.179V54.2362C106.179 53.6268 106.06 53.1358 105.857 52.7803C105.637 52.4417 105.231 52.2554 104.621 52.2554C103.995 52.2554 103.521 52.4586 103.199 52.848C102.86 53.2374 102.708 53.7791 102.708 54.4733V59.603H100.778V54.1347C100.778 53.5252 100.676 53.0511 100.49 52.7295C100.304 52.4247 99.9146 52.2554 99.339 52.2554C98.6788 52.2554 98.1878 52.4755 97.8492 52.8988C97.5106 53.322 97.3413 53.8807 97.3413 54.5748V59.603H95.4113V50.8672H97.2397Z" fill="#38A56F"/>
<path d="M117.998 50.8672L114.764 59.4337C114.73 59.5184 114.663 59.6877 114.578 59.9416C114.476 60.1956 114.426 60.3649 114.392 60.4495C114.358 60.5511 114.29 60.7035 114.189 60.9236C114.087 61.1606 114.019 61.313 113.969 61.3976L113.715 61.8039C113.596 61.9902 113.494 62.1256 113.393 62.1933C113.291 62.278 113.173 62.3796 113.037 62.4981C112.902 62.6166 112.75 62.7012 112.614 62.752C112.462 62.8028 112.292 62.8536 112.106 62.8875C111.92 62.9213 111.717 62.9382 111.514 62.9382C111.141 62.9382 110.701 62.9044 110.176 62.8367V61.2114C110.583 61.296 110.921 61.3299 111.192 61.3299C111.327 61.3299 111.446 61.313 111.564 61.2791C111.666 61.2453 111.768 61.1775 111.869 61.076C111.954 60.9744 112.039 60.8897 112.106 60.8051C112.174 60.7204 112.225 60.6019 112.292 60.4495C112.36 60.2972 112.411 60.1787 112.445 60.094C112.479 60.0094 112.513 59.8739 112.58 59.6877C112.631 59.5184 112.665 59.3999 112.682 59.3491L109.33 50.8672H111.446L113.782 57.3006L115.983 50.8672H117.998Z" fill="#38A56F"/>
<path d="M51.5171 44.292C49.7257 44.292 48.3771 43.6817 47.4716 42.4612C46.566 41.2209 46.1132 39.3507 46.1132 36.8506V28.3756H50.3655V36.3486C50.3655 37.8447 50.582 38.957 51.0151 39.6854C51.4679 40.3941 52.1569 40.7485 53.0822 40.7485C53.6334 40.7485 54.1059 40.6205 54.4996 40.3646C54.913 40.089 55.2674 39.7051 55.5626 39.2129C55.8579 38.7011 56.0843 38.1105 56.2418 37.4412C56.3993 36.7521 56.4879 36.0139 56.5076 35.2265V28.3756H60.7303V43.8786H57.2754V38.9472H56.7438C56.4879 40.1874 56.1335 41.2012 55.6808 41.9887C55.228 42.7761 54.6669 43.3569 53.9976 43.7309C53.3282 44.105 52.5014 44.292 51.5171 44.292Z" fill="#224750"/>
<path d="M65.1069 43.8786V28.3756H69.3591V43.8786H65.1069ZM67.233 26.1314C66.4062 26.1314 65.7664 25.964 65.3136 25.6294C64.8805 25.275 64.6639 24.7632 64.6639 24.0938C64.6639 23.4048 64.8805 22.8831 65.3136 22.5288C65.7664 22.1744 66.4062 21.9973 67.233 21.9973C68.0795 21.9973 68.7193 22.1744 69.1524 22.5288C69.6052 22.8831 69.8316 23.395 69.8316 24.0643C69.8316 24.7337 69.6052 25.2455 69.1524 25.5998C68.7193 25.9542 68.0795 26.1314 67.233 26.1314Z" fill="#224750"/>
<path d="M89.97 44.292C88.1785 44.292 86.83 43.6817 85.9245 42.4612C85.0189 41.2209 84.5661 39.3507 84.5661 36.8506V28.3756H88.8183V36.3486C88.8183 37.8447 89.0349 38.957 89.468 39.6854C89.9208 40.3941 90.6098 40.7485 91.535 40.7485C92.0863 40.7485 92.5587 40.6205 92.9525 40.3646C93.3659 40.089 93.7202 39.7051 94.0155 39.2129C94.3108 38.7011 94.5372 38.1105 94.6947 37.4412C94.8522 36.7521 94.9408 36.0139 94.9605 35.2265V28.3756H99.1832V43.8786H95.7282V38.9472H95.1967C94.9408 40.1874 94.5864 41.2012 94.1336 41.9887C93.6809 42.7761 93.1198 43.3569 92.4505 43.7309C91.7811 44.105 90.9543 44.292 89.97 44.292Z" fill="#224750"/>
<path d="M102.054 43.8786L107.192 36.1123L102.083 28.3756H106.956L109.79 34.1634H110.263L113.068 28.3756H117.941L112.832 36.1123L118 43.8786H113.127L110.263 38.0317H109.79L106.985 43.8786H102.054Z" fill="#224750"/>
<path d="M0 24.0132H15.995V34.6153C15.995 39.0322 12.4144 42.6128 7.99751 42.6128C3.58061 42.6128 0 39.0322 0 34.6153V24.0132Z" fill="#38A56F"/>
<path d="M34.7663 39.6535C34.7663 41.2931 33.4372 42.6223 31.7976 42.6223L21.74 42.6223C20.1005 42.6223 18.7713 41.2931 18.7713 39.6535L18.7713 29.8953L34.7663 29.8953L34.7663 39.6535Z" fill="#38A56F"/>
<path d="M34.7663 25.9494C34.7663 27.0107 33.906 27.871 32.8448 27.871L20.6929 27.871C19.6316 27.871 18.7713 27.0107 18.7713 25.9494C18.7713 24.8886 19.6313 24.0286 20.6921 24.0286L32.8455 24.0286C33.9063 24.0286 34.7663 24.8886 34.7663 25.9494Z" fill="#38A56F"/>
<path d="M0 45.3962H15.995V55.9983C15.995 60.4152 12.4144 63.9958 7.99751 63.9958C3.58061 63.9958 0 60.4152 0 55.9983V45.3962Z" fill="#224750"/>
<path d="M26.7687 54.7027L34.7662 64.0025H18.7712L26.7687 54.7027Z" fill="#9FC955"/>
<path d="M26.7688 54.7027L18.7713 45.4029L34.7663 45.4029L26.7688 54.7027Z" fill="#9FC955"/>
<rect x="74.0783" y="36.2366" width="4.11898" height="4.11898" transform="rotate(-45 74.0783 36.2366)" fill="#224750"/>
</g>
<defs>
<clipPath id="clip0_109_43">
<rect width="118" height="86" fill="white"/>
</clipPath>
</defs>
</svg>
