<svg width="118" height="42" viewBox="0 0 118 42" fill="none" xmlns="http://www.w3.org/2000/svg">
<path d="M46.4839 31.559C46.687 29.5952 47.9568 28.5963 50.3101 28.5963C51.3936 28.5963 52.2739 28.8164 52.9173 29.2396C53.5606 29.6798 53.8992 30.3401 53.8992 31.2374V35.673C53.8992 35.927 53.9161 36.0963 53.9839 36.1809C54.0516 36.2825 54.1701 36.3164 54.3563 36.3164C54.4918 36.3164 54.6272 36.3164 54.7965 36.2825V37.6369C54.2886 37.7723 53.8823 37.8231 53.5437 37.8231C52.7141 37.8231 52.2401 37.4845 52.1216 36.7735C51.3766 37.4845 50.3608 37.8231 49.0572 37.8231C48.143 37.8231 47.432 37.603 46.9071 37.129C46.3654 36.655 46.1114 36.0286 46.1114 35.2159C46.1114 34.9789 46.1283 34.7419 46.1961 34.5218C46.2469 34.3186 46.3146 34.1324 46.3823 33.9631C46.45 33.8107 46.5685 33.6584 46.7378 33.5229C46.9071 33.3875 47.0426 33.2859 47.1441 33.1843C47.2457 33.0997 47.432 33.015 47.669 32.9304C47.906 32.8626 48.0922 32.7949 48.2107 32.7611C48.3292 32.7272 48.5324 32.6764 48.8371 32.6256C49.125 32.5918 49.3112 32.5579 49.4128 32.541C49.5143 32.524 49.7175 32.4902 50.0222 32.4563C50.6994 32.3717 51.1735 32.304 51.4274 32.2362C51.6645 32.1685 51.8338 32.0839 51.9353 31.9484C52.0031 31.8638 52.0538 31.6606 52.0538 31.322C52.0538 30.4417 51.4444 30.0015 50.2593 30.0015C49.6159 30.0015 49.1588 30.12 48.871 30.357C48.5663 30.594 48.38 31.0003 48.3123 31.559H46.4839ZM52.0369 33.2182C51.8845 33.3028 51.7152 33.3705 51.529 33.4383C51.3259 33.506 51.1735 33.5398 51.055 33.5568C50.9365 33.5737 50.7502 33.5906 50.4963 33.6245C50.2423 33.6584 50.073 33.6922 50.0053 33.6922C49.7683 33.7261 49.5821 33.7599 49.4466 33.7938C49.3112 33.8277 49.1419 33.8615 48.9387 33.9292C48.7356 33.997 48.5832 34.0816 48.4816 34.1832C48.38 34.2848 48.2785 34.4033 48.2107 34.5726C48.1261 34.7419 48.0922 34.9281 48.0922 35.1482C48.0922 35.5714 48.2277 35.8931 48.4985 36.1132C48.7694 36.3502 49.1588 36.4518 49.6667 36.4518C50.5132 36.4518 51.1735 36.2317 51.6475 35.7577C51.9015 35.5037 52.0369 34.9958 52.0369 34.2509V33.2182Z" fill="#38A56F"/>
<path d="M64.0684 34.3017C63.933 35.3852 63.4928 36.2317 62.7818 36.8751C62.0538 37.5184 61.1396 37.8231 60.056 37.8231C58.7355 37.8231 57.7028 37.4168 56.924 36.5872C56.1452 35.7577 55.7558 34.6742 55.7558 33.3198C55.7558 31.8807 56.1452 30.7295 56.924 29.883C57.7028 29.0365 58.7694 28.5963 60.1068 28.5963C61.2242 28.5963 62.1215 28.8841 62.7987 29.4428C63.4759 30.0184 63.8822 30.7972 64.0007 31.7961H62.0876C61.9691 31.2543 61.749 30.831 61.4104 30.5263C61.0718 30.2385 60.6317 30.0861 60.1238 30.0861C59.3788 30.0861 58.7863 30.3739 58.363 30.9326C57.9229 31.4913 57.7197 32.2532 57.7197 33.2182C57.7197 34.2001 57.9229 34.945 58.3292 35.4868C58.7355 36.0286 59.3111 36.2994 60.056 36.2994C60.6317 36.2994 61.0888 36.1301 61.4612 35.7915C61.8337 35.4529 62.0707 34.945 62.1723 34.3017H64.0684Z" fill="#38A56F"/>
<path d="M65.6372 31.559C65.8404 29.5952 67.1102 28.5963 69.4634 28.5963C70.5469 28.5963 71.4273 28.8164 72.0706 29.2396C72.714 29.6798 73.0526 30.3401 73.0526 31.2374V35.673C73.0526 35.927 73.0695 36.0963 73.1372 36.1809C73.205 36.2825 73.3235 36.3164 73.5097 36.3164C73.6451 36.3164 73.7806 36.3164 73.9499 36.2825V37.6369C73.442 37.7723 73.0357 37.8231 72.6971 37.8231C71.8675 37.8231 71.3934 37.4845 71.2749 36.7735C70.53 37.4845 69.5142 37.8231 68.2106 37.8231C67.2964 37.8231 66.5853 37.603 66.0605 37.129C65.5187 36.655 65.2648 36.0286 65.2648 35.2159C65.2648 34.9789 65.2817 34.7419 65.3494 34.5218C65.4002 34.3186 65.4679 34.1324 65.5357 33.9631C65.6034 33.8107 65.7219 33.6584 65.8912 33.5229C66.0605 33.3875 66.1959 33.2859 66.2975 33.1843C66.3991 33.0997 66.5853 33.015 66.8223 32.9304C67.0594 32.8626 67.2456 32.7949 67.3641 32.7611C67.4826 32.7272 67.6858 32.6764 67.9905 32.6256C68.2783 32.5918 68.4646 32.5579 68.5661 32.541C68.6677 32.524 68.8709 32.4902 69.1756 32.4563C69.8528 32.3717 70.3269 32.304 70.5808 32.2362C70.8178 32.1685 70.9871 32.0839 71.0887 31.9484C71.1564 31.8638 71.2072 31.6606 71.2072 31.322C71.2072 30.4417 70.5977 30.0015 69.4126 30.0015C68.7693 30.0015 68.3122 30.12 68.0244 30.357C67.7196 30.594 67.5334 31.0003 67.4657 31.559H65.6372ZM71.1903 33.2182C71.0379 33.3028 70.8686 33.3705 70.6824 33.4383C70.4792 33.506 70.3269 33.5398 70.2083 33.5568C70.0898 33.5737 69.9036 33.5906 69.6497 33.6245C69.3957 33.6584 69.2264 33.6922 69.1587 33.6922C68.9217 33.7261 68.7354 33.7599 68.6 33.7938C68.4646 33.8277 68.2953 33.8615 68.0921 33.9292C67.8889 33.997 67.7366 34.0816 67.635 34.1832C67.5334 34.2848 67.4318 34.4033 67.3641 34.5726C67.2795 34.7419 67.2456 34.9281 67.2456 35.1482C67.2456 35.5714 67.381 35.8931 67.6519 36.1132C67.9228 36.3502 68.3122 36.4518 68.8201 36.4518C69.6666 36.4518 70.3269 36.2317 70.8009 35.7577C71.0548 35.5037 71.1903 34.9958 71.1903 34.2509V33.2182Z" fill="#38A56F"/>
<path d="M83.5773 25.5489V37.603H81.7658V36.401C81.2071 37.366 80.276 37.8401 78.9724 37.8401C77.7365 37.8401 76.7546 37.4337 76.0266 36.5872C75.2986 35.7577 74.9431 34.6403 74.9431 33.2182C74.9431 31.8299 75.2986 30.7125 76.0096 29.883C76.7207 29.0534 77.6857 28.6301 78.9047 28.6301C80.1236 28.6301 81.0548 29.0873 81.6812 30.0015V25.5489H83.5773ZM79.2602 30.1877C78.5153 30.1877 77.9397 30.4586 77.5164 31.0003C77.0932 31.5421 76.89 32.2701 76.89 33.1843C76.89 34.1493 77.0932 34.9112 77.5333 35.4529C77.9735 36.0116 78.5661 36.2825 79.3279 36.2825C80.0728 36.2825 80.6654 36.0116 81.0886 35.4699C81.5119 34.9281 81.732 34.1832 81.732 33.2182C81.732 32.2701 81.5119 31.5252 81.0717 30.9834C80.6315 30.4586 80.039 30.1877 79.2602 30.1877Z" fill="#38A56F"/>
<path d="M93.6393 34.8773C93.4192 35.8254 92.9452 36.5703 92.2341 37.0951C91.5231 37.6369 90.6596 37.8909 89.6777 37.8909C88.3572 37.8909 87.3075 37.4676 86.5287 36.6211C85.7499 35.7746 85.3775 34.6742 85.3775 33.3367C85.3775 31.9823 85.7669 30.848 86.5626 29.9507C87.3583 29.0703 88.3741 28.6132 89.61 28.6132C90.8797 28.6132 91.8955 29.0534 92.6404 29.9338C93.3854 30.8141 93.7578 31.9992 93.7578 33.506V33.7091H87.3075C87.3244 34.5895 87.5445 35.2836 87.9678 35.7577C88.3741 36.2317 88.9666 36.4687 89.7116 36.4687C90.2364 36.4687 90.6596 36.3502 90.9982 36.0963C91.3368 35.8423 91.5908 35.436 91.7939 34.8773H93.6393ZM91.8278 32.4225C91.7601 31.6945 91.54 31.1189 91.1337 30.6956C90.7274 30.2724 90.2195 30.0523 89.593 30.0523C88.9497 30.0523 88.4418 30.2554 88.0524 30.6617C87.663 31.0681 87.426 31.6606 87.3414 32.4225H91.8278Z" fill="#38A56F"/>
<path d="M97.2397 28.8672V30.1031C97.9508 29.1211 98.865 28.6301 99.9824 28.6301C100.558 28.6301 101.049 28.7656 101.472 29.0195C101.895 29.2904 102.217 29.6459 102.42 30.12C103.114 29.138 104.062 28.6301 105.248 28.6301C106.06 28.6301 106.754 28.8841 107.296 29.3751C107.838 29.866 108.109 30.5432 108.109 31.4067V37.603H106.179V32.2362C106.179 31.6268 106.06 31.1358 105.857 30.7803C105.637 30.4417 105.231 30.2554 104.621 30.2554C103.995 30.2554 103.521 30.4586 103.199 30.848C102.86 31.2374 102.708 31.7791 102.708 32.4733V37.603H100.778V32.1347C100.778 31.5252 100.676 31.0511 100.49 30.7295C100.304 30.4247 99.9146 30.2554 99.339 30.2554C98.6788 30.2554 98.1878 30.4755 97.8492 30.8988C97.5106 31.322 97.3413 31.8807 97.3413 32.5748V37.603H95.4113V28.8672H97.2397Z" fill="#38A56F"/>
<path d="M117.998 28.8672L114.764 37.4337C114.73 37.5184 114.663 37.6877 114.578 37.9416C114.476 38.1956 114.426 38.3649 114.392 38.4495C114.358 38.5511 114.29 38.7035 114.189 38.9236C114.087 39.1606 114.019 39.313 113.969 39.3976L113.715 39.8039C113.596 39.9902 113.494 40.1256 113.393 40.1933C113.291 40.278 113.173 40.3796 113.037 40.4981C112.902 40.6166 112.75 40.7012 112.614 40.752C112.462 40.8028 112.292 40.8536 112.106 40.8875C111.92 40.9213 111.717 40.9382 111.514 40.9382C111.141 40.9382 110.701 40.9044 110.176 40.8367V39.2114C110.583 39.296 110.921 39.3299 111.192 39.3299C111.327 39.3299 111.446 39.313 111.564 39.2791C111.666 39.2453 111.768 39.1775 111.869 39.076C111.954 38.9744 112.039 38.8897 112.106 38.8051C112.174 38.7204 112.225 38.6019 112.292 38.4495C112.36 38.2972 112.411 38.1787 112.445 38.094C112.479 38.0094 112.513 37.8739 112.58 37.6877C112.631 37.5184 112.665 37.3999 112.682 37.3491L109.33 28.8672H111.446L113.782 35.3006L115.983 28.8672H117.998Z" fill="#38A56F"/>
<path d="M51.5171 22.292C49.7257 22.292 48.3771 21.6817 47.4716 20.4612C46.566 19.2209 46.1132 17.3507 46.1132 14.8506V6.37562H50.3655V14.3486C50.3655 15.8447 50.582 16.957 51.0151 17.6854C51.4679 18.3941 52.1569 18.7485 53.0822 18.7485C53.6334 18.7485 54.1059 18.6205 54.4996 18.3646C54.913 18.089 55.2674 17.7051 55.5626 17.2129C55.8579 16.7011 56.0843 16.1105 56.2418 15.4412C56.3993 14.7521 56.4879 14.0139 56.5076 13.2265V6.37562H60.7303V21.8786H57.2754V16.9472H56.7438C56.4879 18.1874 56.1335 19.2012 55.6808 19.9887C55.228 20.7761 54.6669 21.3569 53.9976 21.7309C53.3282 22.105 52.5014 22.292 51.5171 22.292Z" fill="#224750"/>
<path d="M65.1069 21.8786V6.37562H69.3591V21.8786H65.1069ZM67.233 4.13138C66.4062 4.13138 65.7664 3.96405 65.3136 3.62938C64.8805 3.27502 64.6639 2.76318 64.6639 2.09385C64.6639 1.40482 64.8805 0.883137 65.3136 0.528784C65.7664 0.17443 66.4062 -0.00274658 67.233 -0.00274658C68.0795 -0.00274658 68.7193 0.17443 69.1524 0.528784C69.6052 0.883137 69.8316 1.39498 69.8316 2.06432C69.8316 2.73365 69.6052 3.24549 69.1524 3.59985C68.7193 3.9542 68.0795 4.13138 67.233 4.13138Z" fill="#224750"/>
<path d="M89.97 22.292C88.1785 22.292 86.83 21.6817 85.9245 20.4612C85.0189 19.2209 84.5661 17.3507 84.5661 14.8506V6.37562H88.8183V14.3486C88.8183 15.8447 89.0349 16.957 89.468 17.6854C89.9208 18.3941 90.6098 18.7485 91.535 18.7485C92.0863 18.7485 92.5587 18.6205 92.9525 18.3646C93.3659 18.089 93.7202 17.7051 94.0155 17.2129C94.3108 16.7011 94.5372 16.1105 94.6947 15.4412C94.8522 14.7521 94.9408 14.0139 94.9605 13.2265V6.37562H99.1832V21.8786H95.7282V16.9472H95.1967C94.9408 18.1874 94.5864 19.2012 94.1336 19.9887C93.6809 20.7761 93.1198 21.3569 92.4505 21.7309C91.7811 22.105 90.9543 22.292 89.97 22.292Z" fill="#224750"/>
<path d="M102.054 21.8786L107.192 14.1123L102.083 6.37562H106.956L109.79 12.1634H110.263L113.068 6.37562H117.941L112.832 14.1123L118 21.8786H113.127L110.263 16.0317H109.79L106.985 21.8786H102.054Z" fill="#224750"/>
<path d="M0 2.01318H15.995V12.6153C15.995 17.0322 12.4144 20.6128 7.99751 20.6128C3.58061 20.6128 0 17.0322 0 12.6153V2.01318Z" fill="#38A56F"/>
<path d="M34.7663 17.6535C34.7663 19.2931 33.4372 20.6223 31.7976 20.6223L21.74 20.6223C20.1005 20.6223 18.7713 19.2931 18.7713 17.6535L18.7713 7.89531L34.7663 7.89531L34.7663 17.6535Z" fill="#38A56F"/>
<path d="M34.7663 3.94943C34.7663 5.01067 33.906 5.87097 32.8448 5.87097L20.6929 5.87097C19.6316 5.87097 18.7713 5.01067 18.7713 3.94943C18.7713 2.88858 19.6313 2.0286 20.6921 2.0286L32.8455 2.0286C33.9063 2.0286 34.7663 2.88858 34.7663 3.94943Z" fill="#38A56F"/>
<path d="M0 23.3962H15.995V33.9983C15.995 38.4152 12.4144 41.9958 7.99751 41.9958C3.58061 41.9958 0 38.4152 0 33.9983V23.3962Z" fill="#224750"/>
<path d="M26.7687 32.7027L34.7662 42.0025H18.7712L26.7687 32.7027Z" fill="#9FC955"/>
<path d="M26.7688 32.7027L18.7713 23.4029L34.7663 23.4029L26.7688 32.7027Z" fill="#9FC955"/>
<rect x="74.0783" y="14.2366" width="4.11898" height="4.11898" transform="rotate(-45 74.0783 14.2366)" fill="#224750"/>
</svg>
