<svg width="139" height="86" viewBox="0 0 139 86" fill="none" xmlns="http://www.w3.org/2000/svg">
<path d="M45.0742 54.694C43.5752 54.694 42.2261 54.5455 41.0269 54.2486C39.8508 53.9744 38.8361 53.5518 37.9828 52.9807C37.1526 52.3868 36.4954 51.6558 36.0111 50.7877C35.614 50.0206 35.3622 49.1604 35.2557 48.2071C35.2249 47.9315 35.4012 47.6782 35.6673 47.5924L38.8056 46.5808C39.192 46.4563 39.5897 46.732 39.6569 47.129C39.7725 47.8116 39.9985 48.403 40.3351 48.9031C40.8194 49.5884 41.4997 50.091 42.376 50.4108C43.2524 50.7306 44.2325 50.8905 45.3163 50.8905C46.3541 50.8905 47.2304 50.7649 47.9453 50.5136C48.6602 50.2623 49.2022 49.9311 49.5712 49.5199C49.9401 49.0858 50.1246 48.6175 50.1246 48.115C50.1246 47.521 49.894 47.0413 49.4328 46.6758C48.9716 46.3103 48.3374 46.0019 47.5302 45.7506C46.7461 45.4993 45.8468 45.2595 44.8321 45.031C43.702 44.7797 42.5836 44.4942 41.4766 44.1744C40.3927 43.8546 39.4011 43.4434 38.5017 42.9408C37.6254 42.4382 36.922 41.7872 36.3916 40.9876C35.8842 40.1881 35.6306 39.183 35.6306 37.9722C35.6306 36.5788 35.9765 35.3794 36.6683 34.3743C37.3832 33.3463 38.421 32.5468 39.7816 31.9757C41.1422 31.4046 42.7796 31.119 44.6937 31.119C46.6308 31.119 48.2797 31.4046 49.6404 31.9757C51.024 32.5239 52.0964 33.3121 52.8574 34.34C53.5285 35.2264 53.9306 36.2638 54.0637 37.4522C54.0954 37.7353 53.9058 37.992 53.6286 38.068L50.3845 38.9579C49.993 39.0653 49.6088 38.772 49.5516 38.3735C49.4964 37.9894 49.3992 37.6386 49.2598 37.3212C49.0292 36.7958 48.7064 36.3617 48.2913 36.0191C47.8762 35.6536 47.3573 35.3794 46.7346 35.1967C46.135 35.0139 45.4432 34.9226 44.6591 34.9226C43.7597 34.9226 42.9756 35.0368 42.3068 35.2652C41.6611 35.4937 41.1653 35.8021 40.8194 36.1904C40.4965 36.5788 40.3351 37.0356 40.3351 37.561C40.3351 38.1778 40.5888 38.6918 41.0961 39.103C41.6265 39.4914 42.3184 39.8112 43.1716 40.0625C44.048 40.3137 45.005 40.5536 46.0428 40.782C47.0344 40.9876 48.0376 41.2503 49.0523 41.5702C50.09 41.8671 51.0471 42.2669 51.9234 42.7695C52.8228 43.2492 53.5377 43.9117 54.0681 44.7569C54.6216 45.5793 54.8983 46.6187 54.8983 47.8751C54.8983 49.2457 54.5294 50.445 53.7914 51.473C53.0534 52.501 51.9465 53.3005 50.4706 53.8716C49.0177 54.4199 47.2189 54.694 45.0742 54.694Z" fill="#224750"/>
<path d="M57.4175 54.2143C57.078 54.2143 56.8028 53.9417 56.8028 53.6054V30.3231C56.8028 29.9868 57.078 29.7141 57.4175 29.7141H61.1001C61.4396 29.7141 61.7149 29.9868 61.7149 30.3231V42.1697C61.7149 42.6581 62.2639 42.9442 62.6576 42.6503C63.0342 42.3692 63.4002 42.0777 63.7558 41.7758C64.4246 41.2047 65.0242 40.6107 65.5546 39.9939C66.1081 39.3771 66.5923 38.7489 67.0075 38.1093C67.3649 37.5876 67.6762 37.0734 67.9416 36.5669C68.0503 36.3592 68.2645 36.2247 68.5007 36.2247H72.9185C73.3522 36.2247 73.6478 36.6572 73.4623 37.0455C73.1753 37.646 72.834 38.2519 72.4384 38.8631C71.8849 39.7312 71.2161 40.5422 70.4321 41.296C69.671 42.027 68.7832 42.6552 67.7685 43.1807C66.8214 43.671 65.784 44.0122 64.6561 44.2041C64.5166 44.2278 64.413 44.3466 64.413 44.4867C64.413 44.6633 64.5744 44.7966 64.7505 44.7696C66.1455 44.5563 67.3129 44.5977 68.2528 44.894C69.2675 45.2138 70.0977 45.7278 70.7434 46.4359C71.4122 47.1212 71.9426 47.9208 72.3346 48.8345C72.7267 49.7255 73.0841 50.6278 73.407 51.5416L73.9701 53.4331C74.0862 53.8232 73.791 54.2143 73.3804 54.2143H69.2446C68.9658 54.2143 68.7219 54.0284 68.6504 53.7615L68.3219 52.5353C67.9991 51.4159 67.6416 50.4336 67.2496 49.5884C66.8576 48.7432 66.3387 48.0921 65.693 47.6352C65.0703 47.1555 64.2055 46.9156 63.0985 46.9156H62.3296C61.9901 46.9156 61.7149 47.1883 61.7149 47.5246V53.6054C61.7149 53.9417 61.4396 54.2143 61.1001 54.2143H57.4175Z" fill="#224750"/>
<path d="M76.4188 54.2143C76.0793 54.2143 75.8041 53.9417 75.8041 53.6054V36.8336C75.8041 36.4973 76.0793 36.2247 76.4188 36.2247H80.1706C80.5101 36.2247 80.7854 36.4973 80.7854 36.8336V53.6054C80.7854 53.9417 80.5101 54.2143 80.1706 54.2143H76.4188ZM78.3293 33.5177C77.3607 33.5177 76.6113 33.3235 76.0808 32.9351C75.5735 32.5239 75.3198 31.93 75.3198 31.1533C75.3198 30.3538 75.5735 29.7484 76.0808 29.3372C76.6113 28.926 77.3607 28.7204 78.3293 28.7204C79.321 28.7204 80.0705 28.926 80.5778 29.3372C81.1082 29.7484 81.3734 30.3538 81.3734 31.1533C81.3734 31.9072 81.1082 32.4897 80.5778 32.9009C80.0705 33.3121 79.321 33.5177 78.3293 33.5177Z" fill="#224750"/>
<path d="M84.779 54.2143C84.4395 54.2143 84.1643 53.9417 84.1643 53.6054V30.3231C84.1643 29.9868 84.4395 29.7141 84.779 29.7141H88.4616C88.8011 29.7141 89.0764 29.9868 89.0764 30.3231V53.6054C89.0764 53.9417 88.8011 54.2143 88.4616 54.2143H84.779Z" fill="#224750"/>
<path d="M93.1392 54.2143C92.7997 54.2143 92.5245 53.9417 92.5245 53.6054V30.3231C92.5245 29.9868 92.7997 29.7141 93.1392 29.7141H96.8218C97.1613 29.7141 97.4366 29.9868 97.4366 30.3231V53.6054C97.4366 53.9417 97.1613 54.2143 96.8218 54.2143H93.1392Z" fill="#224750"/>
<path d="M107.042 54.694C104.92 54.694 103.318 53.9859 102.234 52.5695C101.173 51.1304 100.643 48.9488 100.643 46.0247V36.8336C100.643 36.4973 100.918 36.2247 101.257 36.2247H105.009C105.349 36.2247 105.624 36.4973 105.624 36.8336V45.4079C105.624 47.1669 105.889 48.4805 106.419 49.3485C106.95 50.1938 107.757 50.6164 108.841 50.6164C109.487 50.6164 110.052 50.4565 110.536 50.1366C111.02 49.8168 111.435 49.3714 111.781 48.8003C112.127 48.2292 112.381 47.5553 112.542 46.7786C112.727 46.0019 112.83 45.1681 112.854 44.2772V36.8336C112.854 36.4973 113.129 36.2247 113.468 36.2247H117.22C117.56 36.2247 117.835 36.4973 117.835 36.8336V53.6054C117.835 53.9417 117.56 54.2143 117.22 54.2143H114.433C114.095 54.2143 113.82 53.9439 113.818 53.6091L113.79 48.9389C113.788 48.7485 113.632 48.5947 113.44 48.5947C113.279 48.5947 113.138 48.7042 113.098 48.8592C112.763 50.1567 112.347 51.2336 111.85 52.0898C111.343 52.9807 110.686 53.6432 109.879 54.0772C109.095 54.4884 108.149 54.694 107.042 54.694Z" fill="#44B07A"/>
<path fill-rule="evenodd" clip-rule="evenodd" d="M120.528 36.8336C120.528 36.4973 120.803 36.2247 121.143 36.2247H124.034C124.372 36.2247 124.646 36.4948 124.648 36.8294L124.677 40.9108C124.678 41.0888 124.819 41.2352 124.998 41.2451C125.171 41.2546 125.323 41.1338 125.356 40.9655C125.569 39.8843 125.908 38.9665 126.374 38.2121C126.904 37.3897 127.585 36.7729 128.415 36.3617C129.245 35.9505 130.202 35.7449 131.286 35.7449C132.9 35.7449 134.284 36.1447 135.437 36.9443C136.59 37.721 137.466 38.8289 138.066 40.2681C138.689 41.6844 139 43.3634 139 45.3051C139 47.1098 138.723 48.7203 138.17 50.1366C137.616 51.5301 136.786 52.6381 135.679 53.4604C134.595 54.2828 133.235 54.694 131.597 54.694C130.444 54.694 129.464 54.477 128.657 54.043C127.873 53.6089 127.216 53.0036 126.685 52.2269C126.214 51.4838 125.812 50.6124 125.48 49.6128C125.434 49.4764 125.307 49.3828 125.162 49.3828C124.949 49.3828 124.792 49.5774 124.836 49.783C124.941 50.2708 125.038 50.7656 125.129 51.2674C125.244 51.9071 125.336 52.5353 125.405 53.1521C125.475 53.746 125.509 54.3285 125.509 54.8996V59.362C125.509 59.6983 125.234 59.971 124.894 59.971H121.143C120.803 59.971 120.528 59.6983 120.528 59.362V36.8336ZM131.978 50.0681C131.401 50.525 130.698 50.7534 129.868 50.7534C129.314 50.7534 128.807 50.6506 128.346 50.445C127.884 50.2166 127.481 49.9311 127.135 49.5884C126.789 49.2229 126.489 48.8231 126.236 48.3891C125.982 47.9322 125.797 47.4753 125.682 47.0184C125.567 46.5387 125.509 46.0818 125.509 45.6478V44.9968C125.509 44.4485 125.59 43.8774 125.751 43.2835C125.913 42.6667 126.166 42.0956 126.512 41.5702C126.881 41.0447 127.331 40.6221 127.861 40.3023C128.392 39.9825 129.026 39.8226 129.764 39.8226C130.594 39.8226 131.309 40.051 131.909 40.5079C132.508 40.9648 132.969 41.6044 133.292 42.4268C133.615 43.2263 133.777 44.1972 133.777 45.3394C133.777 46.3902 133.615 47.3268 133.292 48.1492C132.993 48.9716 132.554 49.6112 131.978 50.0681Z" fill="#44B07A"/>
<path d="M25.5878 32.4587C26.6045 33.0397 26.6045 34.4932 25.5878 35.0742L23.1091 36.4907C22.6377 36.7601 22.0571 36.7601 21.5858 36.4907L14.6975 32.5532C14.2259 32.2835 13.6447 32.2835 13.1731 32.5534L7.81138 35.6189C6.79499 36.1998 6.79462 37.6528 7.81073 38.2341L11.6504 40.4294C12.6668 41.0104 12.6669 42.4635 11.6506 43.0447L9.17325 44.4623C8.70159 44.7323 8.12033 44.7324 7.64857 44.4626L0.763587 40.5239C0.292127 40.2543 0.00160994 39.7561 0.00141461 39.2169L-0.000244042 34.6378C-0.000439473 34.0983 0.290014 33.5997 0.761665 33.3299L13.176 26.2312C13.6476 25.9616 14.2286 25.9617 14.7001 26.2315L25.5878 32.4587Z" fill="#44B07A"/>
<path d="M27.1126 42.9496C27.5839 43.2192 27.8743 43.7174 27.8745 44.2565L27.8761 48.8358C27.8763 49.3753 27.5859 49.8739 27.1143 50.1437L14.7023 57.2443C14.2306 57.5141 13.6494 57.5141 13.1778 57.2443L2.28755 51.0144C1.27072 50.4338 1.2701 48.9804 2.28642 48.3989L4.76423 46.9813C5.23574 46.7115 5.81671 46.7114 6.28833 46.981L13.1716 50.918C13.6432 51.1878 14.2243 51.1879 14.696 50.9182L20.058 47.8525C21.0743 47.2716 21.0745 45.8187 20.0585 45.2374L16.2245 43.0443C15.2082 42.4634 15.2079 41.0105 16.224 40.4292L18.7027 39.011C19.1743 38.7411 19.7555 38.7411 20.2272 39.0109L27.1126 42.9496Z" fill="#44B07A"/>
</svg>
