<svg width="113" height="52" viewBox="0 0 113 52" fill="none" xmlns="http://www.w3.org/2000/svg">
<path fill-rule="evenodd" clip-rule="evenodd" d="M8.02578 51.5832L31.4637 11.5385L21.789 13.1201L5.50196 41.286L12.7201 40.3606L11.2395 42.9012L1.14416 44.2136L18.8109 13.6081L7.35276 15.4757L2.28882e-05 5.41404L29.983 0.41687L24.5652 8.79597L21.4525 9.31755L25.1373 3.58006L4.10544 7.07976L8.39594 12.9519L35.9897 8.44263L17.5827 39.8895L32.4059 38.4593L40.2634 47.9152L8.02578 51.5832ZM16.1188 42.3796L12.4004 48.7397L35.6869 46.0981L31.3964 40.9326L16.1188 42.3796Z" fill="#BB962F"/>
<path d="M41.0879 24.0567V22.0208L45.5466 13.2379C46.0514 12.2115 46.573 11.2693 47.0609 10.428C46.4384 10.4449 45.6812 10.4785 44.8063 10.4785H41.6599V8.44263H49.2482V10.4785L44.7726 19.2782C44.3352 20.1027 43.8472 21.0281 43.2415 22.0713C43.8809 22.0545 44.6381 22.0208 45.4962 22.0208H49.3828V24.0567H41.0879Z" fill="#223970"/>
<path fill-rule="evenodd" clip-rule="evenodd" d="M56.4832 24.0567V23.2491C55.8775 23.9389 55.0698 24.2922 54.0603 24.2922C53.0171 24.2922 52.2095 23.9053 51.6375 23.0808C51.1159 22.3573 50.8803 21.4656 50.8803 20.3719C50.8803 17.9659 52.2768 16.5357 54.6997 16.5357C55.3391 16.5357 55.9448 16.6703 56.4832 16.9227V15.7785C56.4832 14.6681 55.9616 14.1128 54.9521 14.1128C54.2454 14.1128 53.4883 14.3484 52.6638 14.8363L51.7552 13.2211C52.8657 12.4807 53.9762 12.0938 55.1203 12.0938C57.6778 12.0938 58.62 13.036 58.62 15.5935V24.0567H56.4832ZM56.4832 18.9249C55.9953 18.6389 55.4064 18.4706 54.7165 18.4706C53.5724 18.4706 53.0171 19.11 53.0171 20.3214C53.0171 21.6843 53.5219 22.3573 54.4978 22.3573C55.4064 22.3573 56.0626 22.004 56.4832 21.2636V18.9249Z" fill="#223970"/>
<path fill-rule="evenodd" clip-rule="evenodd" d="M66.2083 24.0567V23.2659C65.5521 23.9726 64.8455 24.2922 64.021 24.2922C61.6654 24.2922 60.4877 22.2227 60.4877 18.0836C60.4877 16.4852 60.7064 15.1728 61.1607 14.1801C61.7888 12.7892 62.7928 12.0938 64.1724 12.0938C64.9464 12.0938 65.6363 12.3966 66.2083 12.9687V8.91374L68.3452 7.78644V24.0567H66.2083ZM66.2083 15.156C65.7372 14.4662 65.1315 14.1128 64.3575 14.1128C63.2134 14.1128 62.6582 15.3916 62.6582 17.9659C62.6582 20.843 63.2639 22.29 64.4585 22.29C65.1988 22.29 65.7821 21.9367 66.2083 21.23V15.156Z" fill="#223970"/>
<path fill-rule="evenodd" clip-rule="evenodd" d="M78.5078 18.9249H72.3833C72.5179 21.129 73.2414 22.2395 74.5874 22.2395C75.3614 22.2395 76.0849 21.9535 76.7074 21.3814L78.0198 22.7443C77.0776 23.7875 75.9335 24.2922 74.5369 24.2922C73.0226 24.2922 71.8953 23.636 71.1382 22.3068C70.5325 21.2637 70.2296 19.9008 70.2296 18.2519C70.2296 16.5862 70.5325 15.2233 71.0877 14.1801C71.7944 12.7836 72.9217 12.0938 74.4023 12.0938C75.883 12.0938 76.9766 12.7668 77.6833 14.1296C78.2386 15.2065 78.5414 16.5357 78.5414 18.1678C78.5414 18.5211 78.5414 18.7735 78.5078 18.9249ZM75.8998 15.1392C75.5633 14.4325 75.0585 14.1128 74.3687 14.1128C73.2246 14.1128 72.5852 15.0887 72.4001 17.0741H76.3541C76.3204 16.317 76.169 15.6608 75.8998 15.1392Z" fill="#223970"/>
<path d="M85.7595 24.0567V16.8554C85.7595 16.0478 85.6922 15.4589 85.5913 15.0887C85.3557 14.4325 84.9351 14.1296 84.3125 14.1296C83.5722 14.1296 82.9946 14.4886 82.5795 15.2065V24.0567H80.4259V8.91374L82.5795 7.78644V13.1538C83.1348 12.4471 83.8919 12.0938 84.851 12.0938C86.0792 12.0938 86.9205 12.548 87.3916 13.4566C87.7281 14.1296 87.8964 15.1392 87.8964 16.4852V24.0567H85.7595Z" fill="#223970"/>
<path fill-rule="evenodd" clip-rule="evenodd" d="M48.5416 39.5193C47.6891 41.3477 46.3486 42.2619 44.5203 42.2619H40.7345V26.6478H44.5203C46.3879 26.6478 47.7339 27.5059 48.5584 29.2726C49.1641 30.5681 49.467 32.2675 49.467 34.3875C49.467 36.4571 49.1641 38.1564 48.5416 39.5193ZM44.453 28.7846H42.9218V40.1082H44.5203C46.3206 40.1082 47.2123 38.1901 47.2123 34.3875C47.2123 30.6523 46.3038 28.7846 44.453 28.7846Z" fill="#223970"/>
<path fill-rule="evenodd" clip-rule="evenodd" d="M59.3772 37.1301H53.2359C53.3705 39.3342 54.1108 40.4447 55.4568 40.4447C56.2308 40.4447 56.9375 40.1587 57.5769 39.5866L58.8892 40.9326C57.947 41.9927 56.786 42.4974 55.4064 42.4974C53.8921 42.4974 52.7479 41.8244 51.9908 40.512C51.3851 39.4688 51.099 38.106 51.099 36.4571C51.099 34.7913 51.3851 33.4285 51.9403 32.3685C52.6638 30.9888 53.7743 30.2989 55.2718 30.2989C56.7524 30.2989 57.8292 30.972 58.5527 32.3348C59.108 33.3948 59.394 34.7409 59.394 36.3729C59.394 36.7263 59.394 36.9618 59.3772 37.1301ZM56.7692 33.3275C56.4327 32.6377 55.9111 32.3012 55.2213 32.3012C54.094 32.3012 53.4378 33.2939 53.2695 35.2793H57.2067C57.1899 34.5221 57.0384 33.8659 56.7692 33.3275Z" fill="#223970"/>
<path d="M66.629 42.2619V35.0437C66.629 34.2529 66.5617 33.664 66.4439 33.2939C66.2252 32.6377 65.8045 32.3348 65.182 32.3348C64.4417 32.3348 63.8584 32.6882 63.4321 33.3948V42.2619H61.2953V30.5513H63.4321V31.3421C63.9874 30.6523 64.7445 30.2989 65.7036 30.2989C66.9318 30.2989 67.7899 30.7532 68.261 31.6618C68.5807 32.3348 68.7658 33.3275 68.7658 34.6904V42.2619H66.629Z" fill="#223970"/>
<path d="M75.6306 41.959C75.0754 42.3292 74.4528 42.4974 73.7125 42.4974C72.2318 42.4974 71.4579 41.5047 71.4579 39.5193V32.5536H70.196V30.5513H71.4579V27.1357L73.6115 25.9916V30.5513H75.8661V32.5536H73.6115V39.3174C73.6115 40.0914 73.8976 40.4784 74.5033 40.4784C75.0417 40.4784 75.496 40.3101 75.883 39.9736L75.6306 41.959Z" fill="#223970"/>
<path d="M79.0462 28.7173C78.3058 28.7173 77.717 28.1284 77.717 27.405C77.717 26.6646 78.3058 26.0589 79.0462 26.0589C79.7865 26.0589 80.3586 26.6646 80.3586 27.405C80.3586 28.1116 79.7697 28.7173 79.0462 28.7173ZM77.9862 42.2619V30.5513H80.123V42.2619H77.9862Z" fill="#223970"/>
<path d="M85.4567 42.4974C84.1779 42.4974 83.0002 42.0768 81.856 41.2523L82.6805 39.4688C83.7573 40.1418 84.6659 40.4784 85.4062 40.4784C86.427 40.4784 86.9373 40.0521 86.9373 39.1996C86.9373 38.8126 86.7691 38.4593 86.4326 38.1564C86.1634 37.9041 85.5576 37.5339 84.6491 36.9618C83.8414 36.5075 83.2694 36.0701 82.9329 35.6494C82.4786 35.0942 82.2598 34.4044 82.2598 33.5631C82.2598 31.4767 83.5386 30.2989 85.6081 30.2989C86.7859 30.2989 87.8291 30.6523 88.7881 31.3926L87.93 33.1929C87.1056 32.6209 86.3148 32.3348 85.5576 32.3348C84.7837 32.3348 84.3967 32.6713 84.3967 33.3612C84.3967 33.7818 84.6322 34.1856 85.0865 34.5558C85.2548 34.6904 85.6754 34.9596 86.3148 35.3466C87.3243 35.9355 88.0142 36.4402 88.3675 36.8609C88.8386 37.4161 89.091 38.1564 89.091 39.0482C89.091 41.2692 87.7113 42.4974 85.4567 42.4974Z" fill="#223970"/>
<path d="M95.6025 41.959C95.0472 42.3292 94.4247 42.4974 93.6843 42.4974C92.1869 42.4974 91.4297 41.5047 91.4297 39.5193V32.5536H90.151V30.5513H91.4297V27.1357L93.5666 25.9916V30.5513H95.8212V32.5536H93.5666V39.3174C93.5666 40.0914 93.8526 40.4784 94.4583 40.4784C94.9967 40.4784 95.4678 40.3101 95.838 39.9736L95.6025 41.959Z" fill="#223970"/>
<path d="M103.14 32.8396C102.72 32.604 102.232 32.4863 101.643 32.4863C100.953 32.4863 100.398 32.8059 99.9771 33.3948V42.2619H97.8234V30.5513H99.9771V31.3421C100.532 30.6523 101.222 30.2989 102.047 30.2989C102.697 30.2989 103.23 30.4335 103.645 30.7027L103.14 32.8396Z" fill="#223970"/>
<path d="M108.373 46.3841H106.287L107.549 42.2619L104.301 30.5513H106.573L107.936 36.1037C108.222 37.332 108.474 38.3752 108.625 39.2837C108.777 38.4593 109.012 37.3993 109.332 36.0701L110.729 30.5513H113L108.373 46.3841Z" fill="#223970"/>
</svg>
