<svg width="142" height="24" viewBox="0 0 142 24" fill="none" xmlns="http://www.w3.org/2000/svg">
<path fill-rule="evenodd" clip-rule="evenodd" d="M6.73912 0.903084C6.62731 0.94678 6.54609 1.01947 6.49671 1.12004C6.43588 1.2439 6.43477 1.4189 6.494 1.54616C6.51603 1.59354 6.95794 2.36975 7.47601 3.27105C7.99406 4.17236 8.42188 4.92006 8.42669 4.93259C8.43365 4.95074 8.35593 4.97504 8.04498 5.05187C3.90579 6.07484 1.10452 7.58753 0.266041 9.25255C-0.134191 10.0473 -0.082695 10.8779 0.416737 11.6831C0.698505 12.1374 1.26957 12.7046 1.86816 13.1246C2.91813 13.8613 4.38889 14.5373 6.13958 15.0876C8.56202 15.8492 11.6102 16.4202 14.6595 16.6836C14.9265 16.7067 15.1591 16.731 15.1763 16.7377C15.1965 16.7456 15.8309 17.8148 16.9526 19.7314C17.9123 21.3712 18.7272 22.7552 18.7636 22.807C18.8533 22.935 18.9568 23.0269 19.0729 23.0819C19.3105 23.1943 19.512 23.0939 19.6032 22.8179L19.6379 22.7128L19.6507 16.9024C19.6662 9.89793 19.6634 8.93156 19.6269 8.76661C19.5336 8.34524 19.3542 8.06269 19.022 7.81381C18.9566 7.76477 17.6049 6.96703 16.0182 6.04104C13.6868 4.68041 13.1401 4.35531 13.1682 4.34639C13.2104 4.33302 13.9351 4.23905 14.4089 4.18553C15.5751 4.05379 16.6425 3.97335 18.0659 3.90992C18.6597 3.88345 20.7974 3.87346 21.4879 3.89392C22.628 3.92768 23.4461 3.97334 24.4639 4.05998C25.3399 4.13454 26.6219 4.28063 26.6137 4.30497C26.6112 4.31213 25.299 5.08291 23.6976 6.01785C22.0962 6.95276 20.7395 7.75069 20.6827 7.79099C20.626 7.8313 20.5229 7.92096 20.4536 7.99024C20.2433 8.20055 20.1212 8.43235 20.0532 8.7505L20.0181 8.91494L20.0222 15.7277C20.0244 19.4748 20.0324 22.5904 20.0399 22.6514C20.0868 23.0342 20.2916 23.2029 20.5796 23.0957C20.6556 23.0675 20.6974 23.0365 20.7988 22.9333C20.9228 22.8071 20.9433 22.773 22.6782 19.8089C23.643 18.1607 24.4394 16.8025 24.448 16.7907C24.4594 16.7751 24.5904 16.7587 24.9335 16.7302C31.2597 16.2033 36.3734 14.7185 38.7627 12.7149C38.9516 12.5564 39.3019 12.2037 39.4335 12.0394C39.7708 11.6184 39.9782 11.201 40.0717 10.7552C40.1168 10.5399 40.121 10.1617 40.0807 9.94078C39.9989 9.49326 39.75 8.99474 39.4004 8.57822C39.2282 8.37307 38.8643 8.02153 38.6295 7.83354C37.4118 6.85833 35.5608 6.01521 33.1088 5.31882C32.7118 5.20604 31.8412 4.98428 31.4526 4.8969C31.3686 4.87801 31.2999 4.85652 31.2999 4.84915C31.2999 4.84177 31.7203 4.10439 32.2342 3.21054C32.8027 2.22165 33.1803 1.54853 33.1987 1.49135C33.2753 1.25347 33.1855 1.02813 32.9697 0.916052C32.8723 0.865481 32.6521 0.858527 32.5108 0.90155C32.4296 0.926264 31.7504 1.31574 29.6695 2.53078L26.935 4.12751L26.686 4.09797C25.9912 4.01554 24.929 3.91908 24.1191 3.86488C20.9128 3.6503 17.7105 3.68975 14.5655 3.98258C14.1626 4.02008 13.145 4.13152 12.929 4.16178C12.8331 4.17521 12.8229 4.17352 12.7489 4.13161C12.7058 4.1072 11.4559 3.37791 9.97139 2.511C8.39011 1.58754 7.23418 0.921925 7.18021 0.903742C7.05783 0.862521 6.84369 0.862192 6.73912 0.903084ZM31.505 5.29018C34.4967 6.15528 36.4568 7.35118 36.9779 8.62931C37.2525 9.30279 37.1399 9.96491 36.6351 10.6455C36.491 10.8398 36.1179 11.2104 35.8809 11.3947C34.3016 12.6228 31.5251 13.5966 27.8622 14.2073C27.0268 14.3466 25.746 14.5118 24.9335 14.5851C24.8818 14.5897 24.8131 14.5974 24.7807 14.6021L24.7219 14.6107L24.7299 10.7072L29.397 8.1463L30.2496 6.66298C30.7184 5.84715 31.1067 5.17965 31.1124 5.17965C31.1181 5.17965 31.2948 5.22939 31.505 5.29018ZM9.45885 6.72172L10.2771 8.14532L14.9414 10.7048L14.9547 12.6261C14.962 13.6829 14.9639 14.5515 14.959 14.5564C14.9403 14.5751 13.7586 14.4361 12.9994 14.326C9.70074 13.8475 6.96991 13.0463 5.17639 12.0308C4.90222 11.8756 4.43176 11.5613 4.2132 11.3875C3.97431 11.1974 3.62365 10.8432 3.47353 10.6402C3.15928 10.2154 3.01983 9.85617 3.00364 9.42985C2.99354 9.16365 3.0134 9.00821 3.08643 8.78169C3.2458 8.28748 3.63237 7.78596 4.2132 7.31993C4.42521 7.14982 4.89316 6.83673 5.17639 6.67548C5.68172 6.38777 6.41026 6.05449 7.0871 5.8014C7.58476 5.6153 8.58653 5.28606 8.62736 5.29516C8.63464 5.29679 9.00881 5.93874 9.45885 6.72172Z" fill="#1D1D1F"/>
<path fill-rule="evenodd" clip-rule="evenodd" d="M70.3077 5.34024C67.1313 5.47833 64.6566 6.85601 63.4596 9.15257C63.1281 9.7886 62.9253 10.3852 62.7809 11.149C62.6942 11.6081 62.6767 12.7892 62.7493 13.2898C62.8693 14.1184 63.0781 14.7819 63.4399 15.4847C63.8386 16.2592 64.3966 16.9543 65.0698 17.5151C66.1206 18.3903 67.6404 19.0237 69.2173 19.2436C71.832 19.6083 74.2381 19.1309 75.8781 17.9221C76.247 17.6503 76.8372 17.0625 77.0974 16.708C77.6352 15.9753 77.9945 15.12 78.166 14.164L78.2324 13.7936H77.2835C76.7616 13.7936 76.3345 13.8032 76.3345 13.8149C76.3345 13.8266 76.3019 13.9964 76.262 14.1921C75.8625 16.1528 74.3118 17.5493 72.1068 17.9343C71.5072 18.0389 70.3989 18.0493 69.732 17.9565C67.7436 17.6798 66.2687 16.7945 65.3933 15.3522C64.2791 13.5166 64.3106 10.9839 65.4699 9.206C66.479 7.65839 68.1464 6.79966 70.3959 6.66895C71.707 6.59277 72.9176 6.81132 73.8946 7.30066C74.4461 7.57685 74.7017 7.7583 75.1232 8.17306C75.5526 8.59558 75.837 9.04905 76.0304 9.61978L76.1097 9.85365L77.0497 9.86326C77.7896 9.87078 77.9895 9.86315 77.9889 9.82728C77.9869 9.712 77.8432 9.14566 77.7598 8.92481C77.0789 7.12054 75.1023 5.82127 72.4431 5.43016C72.2323 5.39914 71.8842 5.36532 71.6695 5.35495C71.4549 5.34463 71.1902 5.33146 71.0813 5.32567C70.9725 5.31991 70.6244 5.32646 70.3077 5.34024ZM100.532 5.3433C96.433 5.51522 93.5418 7.81685 93.0114 11.3301C92.932 11.8558 92.9316 12.8186 93.0107 13.3438C93.2451 14.9033 93.87 16.1266 94.9772 17.1938C95.7355 17.9247 96.6334 18.4591 97.7351 18.8353C99.4738 19.429 101.736 19.5284 103.68 19.0964C105.318 18.7323 106.783 17.9071 107.75 16.8037C110.164 14.0502 109.892 9.65795 107.162 7.28929C105.531 5.87401 103.324 5.22622 100.532 5.3433ZM53.2428 5.92216C52.8753 6.60796 46.4002 18.9642 46.3779 19.0223C46.3565 19.0781 46.434 19.0828 47.3753 19.0828H48.3958L50.4458 14.9809L58.1462 14.9828L60.2248 19.0828H62.2694L61.4593 17.4906C61.0137 16.6149 59.4688 13.5831 58.026 10.7532L55.4027 5.60791L53.4215 5.58879L53.2428 5.92216ZM78.6013 6.9212H84.6102V19.0828H86.4812V6.9212H92.49V5.58991H78.6013V6.9212ZM111.704 19.0828H113.575V12.7861H121.814V11.4548H113.575V6.9212H122.858V5.58991H111.704V19.0828ZM124.765 19.0828H126.636V5.58991H124.765V19.0828ZM128.111 6.9212H134.12V19.0828H136.027V6.9212H142V5.58991H128.111V6.9212ZM101.703 6.66895C103.514 6.77415 104.868 7.31786 105.913 8.35936C106.692 9.13519 107.142 9.97901 107.392 11.131C107.464 11.4627 107.474 11.6097 107.474 12.3363C107.474 13.0625 107.464 13.2102 107.392 13.5417C106.978 15.4521 105.855 16.8029 104.082 17.5222C103.678 17.686 102.944 17.8743 102.401 17.9536C101.885 18.029 100.554 18.0397 100.082 17.9725C98.6617 17.7698 97.6375 17.3581 96.7498 16.6328C94.8704 15.0974 94.2806 12.1495 95.3851 9.81178C96.1224 8.25118 97.5731 7.1788 99.4343 6.8187C99.9904 6.71108 100.092 6.69798 100.586 6.66995C100.833 6.65592 101.052 6.64217 101.071 6.6394C101.091 6.63663 101.375 6.64995 101.703 6.66895ZM55.8951 10.4619C56.7473 12.2008 57.4445 13.6293 57.4445 13.6365C57.4445 13.6437 56.0197 13.6496 54.2782 13.6496C52.5367 13.6496 51.1119 13.64 51.1119 13.6282C51.1119 13.592 54.322 7.27677 54.3342 7.289C54.3405 7.2953 55.0429 8.72313 55.8951 10.4619Z" fill="#1D1D1F"/>
</svg>
