<svg width="26" height="26" viewBox="0 0 26 26" fill="none" xmlns="http://www.w3.org/2000/svg">
<mask id="path-1-outside-1_1_553" maskUnits="userSpaceOnUse" x="0" y="0" width="26" height="26" fill="black">
<rect fill="white" width="26" height="26"/>
<path d="M1 5C1 2.79086 2.79086 1 5 1H21C23.2091 1 25 2.79086 25 5V21C25 23.2091 23.2091 25 21 25H5C2.79086 25 1 23.2091 1 21V5Z"/>
</mask>
<path d="M1 5C1 2.79086 2.79086 1 5 1H21C23.2091 1 25 2.79086 25 5V21C25 23.2091 23.2091 25 21 25H5C2.79086 25 1 23.2091 1 21V5Z" fill="#F2F2F2"/>
<path d="M5 1V2H21V1V0H5V1ZM25 5H24V21H25H26V5H25ZM21 25V24H5V25V26H21V25ZM1 21H2V5H1H0V21H1ZM5 25V24C3.34315 24 2 22.6569 2 21H1H0C0 23.7614 2.23858 26 5 26V25ZM25 21H24C24 22.6569 22.6569 24 21 24V25V26C23.7614 26 26 23.7614 26 21H25ZM21 1V2C22.6569 2 24 3.34315 24 5H25H26C26 2.23858 23.7614 0 21 0V1ZM5 1V0C2.23858 0 0 2.23858 0 5H1H2C2 3.34315 3.34315 2 5 2V1Z" fill="#CCCCCC" mask="url(#path-1-outside-1_1_553)"/>
<g clip-path="url(#clip0_1_553)">
<path d="M17.5944 5H20.0361L14.7028 11.7911L21 21H16.0522L12.1968 15.4178L7.76305 21H5.32129L11.0402 13.7467L5 5H10.0763L13.5783 10.12L17.5944 5ZM16.7269 19.3644H18.0763L9.33735 6.52889H7.85944L16.7269 19.3644Z" fill="#1A1A1A"/>
</g>
<defs>
<clipPath id="clip0_1_553">
<rect width="16" height="16" fill="white" transform="translate(5 5)"/>
</clipPath>
</defs>
</svg>
